<?xml version="1.0" encoding="UTF-8" standalone="no"?>
<svg width="163px" height="134px" viewBox="0 0 163 134" version="1.1" xmlns="http://www.w3.org/2000/svg" xmlns:xlink="http://www.w3.org/1999/xlink">
    <!-- Generator: Sketch 41.1 (35376) - http://www.bohemiancoding.com/sketch -->
    <title>casa-logo-out-02</title>
    <desc>Created with Sketch.</desc>
    <defs></defs>
    <g id="Page-1" stroke="none" stroke-width="1" fill="none" fill-rule="evenodd">
        <g id="pozitiff-site" transform="translate(-171.000000, -190.000000)" fill="#FFFFFF">
            <g id="casa-logo-out-02" transform="translate(171.000000, 190.000000)">
                <g id="Layer_1">
                    <path d="M52.2066372,59.7663717 L51.8212389,60.6557522 C51.2579646,61.960177 50.4278761,62.5827434 49.3606195,62.5827434 C48.8269912,62.5827434 48.3526549,62.4048673 47.9079646,62.019469 C47.4929204,61.6340708 47.2853982,61.2190265 47.2853982,60.7446903 C47.2853982,60.3 47.4632743,59.6774336 47.8486726,58.9362832 L50.4575221,53.659292 C51.1097345,52.3845133 51.880531,51.7619469 52.8588496,51.7619469 C53.3628319,51.7619469 53.8075221,51.939823 54.1632743,52.2659292 C54.5190265,52.5920354 54.6969027,53.0070796 54.6969027,53.4517699 C54.6969027,53.570354 54.6672566,53.8371681 54.5783186,54.2225664 C54.5190265,54.5190265 54.4893805,54.7561947 54.4893805,54.9933628 C54.4893805,55.8234513 54.7858407,56.6535398 55.4084071,57.5132743 L56.5349558,59.0548673 C57.6615044,60.6261062 58.2247788,62.1676991 58.2247788,63.65 C58.2247788,65.280531 57.6022124,66.6738938 56.3867257,67.7707965 C55.1712389,68.8676991 53.629646,69.4309735 51.7915929,69.4309735 L47.7004425,69.4309735 C46.0402655,69.4309735 45.210177,68.8676991 45.210177,67.7115044 C45.210177,66.9110619 45.5066372,66.2884956 46.0995575,65.8438053 C46.6924779,65.399115 47.4929204,65.1619469 48.530531,65.1619469 L50.8132743,65.1619469 C52.6216814,65.1619469 53.540708,64.5097345 53.540708,63.1756637 C53.540708,62.7013274 53.3628319,62.1380531 53.0367257,61.4858407 L52.2066372,59.7663717 Z" id="Shape"></path>
                    <g id="Group" transform="translate(51.287611, 70.557522)">
                        <path d="M13.459292,22.9460177 L15.6827434,22.9460177 C17.3429204,22.9460177 18.1730088,23.5389381 18.1730088,24.6951327 C18.1730088,25.4955752 17.8765487,26.1181416 17.2836283,26.5628319 C16.690708,27.0075221 15.8902655,27.2150442 14.8526549,27.2150442 L12.2141593,27.2150442 C11.2061947,27.2150442 10.4650442,26.8 9.99070796,25.9699115 C9.16061947,26.8 8.27123894,27.2150442 7.32256637,27.2150442 L4.83230088,27.2150442 C3.37964602,27.2150442 2.22345133,26.7110619 1.36371681,25.7327434 C0.503982301,24.7544248 0.0592920354,23.420354 0.0592920354,21.789823 C0.0592920354,19.2699115 0.919026549,17.0168142 2.63849558,15.000885 C4.3579646,12.9849558 6.28495575,11.9769912 8.41946903,11.9769912 C9.99070796,11.9769912 11.2654867,12.5402655 12.1845133,13.6668142 L16.5424779,2.96460177 C17.2836283,1.12654867 18.3212389,0.237168142 19.6553097,0.237168142 C20.2185841,0.237168142 20.6929204,0.415044248 21.0783186,0.77079646 C21.4637168,1.12654867 21.6712389,1.57123894 21.6712389,2.10486726 C21.6712389,2.5199115 21.5823009,2.96460177 21.3747788,3.46858407 L21.1376106,4.00221239 L13.459292,22.9460177 Z M6.28495575,23.0646018 L7.02610619,23.0646018 C7.91548673,23.0646018 8.50840708,22.7088496 8.80486726,21.9973451 L10.2871681,18.380531 C10.4650442,17.9358407 10.5539823,17.6097345 10.5539823,17.3725664 C10.5539823,16.9871681 10.3761062,16.6610619 10.05,16.3646018 C9.72389381,16.0977876 9.30884956,15.9495575 8.80486726,15.9495575 C7.79690265,15.9495575 6.84823009,16.5128319 5.95884956,17.6393805 C5.06946903,18.7659292 4.62477876,20.0110619 4.62477876,21.3154867 C4.62477876,22.4716814 5.1880531,23.0646018 6.28495575,23.0646018 Z" id="Shape"></path>
                        <path d="M23.6575221,21.4933628 C23.6575221,22.4716814 24.3986726,22.9756637 25.8809735,22.9756637 L31.6915929,22.9756637 C33.3221239,22.9756637 34.1522124,23.5685841 34.1522124,24.7247788 C34.1522124,25.5252212 33.8557522,26.1477876 33.2924779,26.5924779 C32.6995575,27.0371681 31.899115,27.2446903 30.8615044,27.2446903 L25.3176991,27.2446903 C23.2424779,27.2446903 21.6712389,26.740708 20.6039823,25.7030973 C19.5367257,24.6951327 18.9734513,23.1831858 18.9734513,21.2265487 C18.9734513,18.7066372 19.8331858,16.5424779 21.5230088,14.7044248 C23.2128319,12.8663717 25.2584071,11.9769912 27.6004425,11.9769912 C29.3199115,11.9769912 30.6836283,12.4216814 31.7212389,13.3110619 C32.7588496,14.2004425 33.2924779,15.3862832 33.2924779,16.8389381 C33.2924779,18.5880531 32.5809735,19.8924779 31.1283186,20.7522124 C30.3278761,21.2265487 29.1420354,21.4637168 27.5707965,21.4637168 L23.6575221,21.4637168 L23.6575221,21.4933628 Z M24.5765487,17.9061947 L26.740708,17.9061947 C28.1340708,17.9061947 28.8159292,17.6097345 28.7862832,16.9871681 C28.7566372,16.3053097 28.2823009,15.9495575 27.4225664,15.9495575 C26.2367257,15.9495575 25.2880531,16.6017699 24.5765487,17.9061947 Z" id="Shape"></path>
                        <path d="M40.140708,22.9460177 L42.1862832,22.9460177 C43.8464602,22.9460177 44.6765487,23.5389381 44.6765487,24.6951327 C44.6765487,25.4955752 44.3800885,26.1181416 43.8168142,26.5628319 C43.2238938,27.0075221 42.4234513,27.2150442 41.3858407,27.2150442 L37.8579646,27.2150442 C36.879646,27.2150442 36.1384956,26.9778761 35.5752212,26.5331858 C35.0119469,26.0884956 34.7451327,25.4659292 34.7451327,24.6951327 C34.7451327,24.2800885 34.9230088,23.6278761 35.3084071,22.6792035 L43.2238938,3.20176991 L43.4314159,2.66814159 C44.0243363,1.21548673 45.0026549,0.474336283 46.3070796,0.474336283 C46.840708,0.474336283 47.3150442,0.652212389 47.7004425,1.03761062 C48.0858407,1.39336283 48.2637168,1.8380531 48.2637168,2.3420354 C48.2637168,2.72743363 48.1747788,3.17212389 47.9672566,3.67610619 L47.7597345,4.20973451 L40.140708,22.9460177 Z" id="Shape"></path>
                    </g>
                    <g id="Group" transform="translate(0.000000, 93.384956)">
                        <path d="M26.5628319,13.4889381 L23.3017699,21.5230088 C21.6712389,25.4955752 20.4261062,28.2230088 19.5367257,29.7349558 C18.6473451,31.2469027 17.5504425,32.5216814 16.1867257,33.559292 C14.2300885,35.100885 11.9473451,35.8716814 9.36814159,35.8716814 C6.64070796,35.8716814 4.41725664,35.0119469 2.72743363,33.2924779 C1.03761062,31.5730088 0.177876106,29.3199115 0.177876106,26.5628319 C0.177876106,22.8867257 1.5119469,19.6553097 4.20973451,16.8982301 C5.66238938,15.4159292 7.47079646,14.2004425 9.66460177,13.3110619 C11.8584071,12.3920354 13.9929204,11.9473451 16.1570796,11.9473451 C17.1946903,11.9473451 18.0247788,12.1845133 18.6473451,12.6292035 C19.2699115,13.1035398 19.5960177,13.6964602 19.5960177,14.4672566 C19.5960177,15.2676991 19.2699115,15.8902655 18.5880531,16.3942478 C18.2026549,16.690708 17.4318584,16.8685841 16.3349558,16.9871681 C13.7557522,17.2243363 11.650885,17.8172566 10.05,18.7659292 C8.7159292,19.5663717 7.67831858,20.6039823 6.90752212,21.8787611 C6.13672566,23.1535398 5.75132743,24.5172566 5.75132743,25.9402655 C5.75132743,27.3929204 6.13672566,28.549115 6.87787611,29.4088496 C7.61902655,30.2685841 8.62699115,30.6836283 9.90176991,30.6836283 C11.5026549,30.6836283 12.8663717,30.0017699 14.0225664,28.6676991 C15.1787611,27.3336283 16.4535398,24.9323009 17.8469027,21.4933628 L24.6358407,4.80265487 L22.5309735,4.80265487 C20.7225664,4.80265487 19.8331858,4.1800885 19.8331858,2.93495575 C19.8331858,2.04557522 20.159292,1.36371681 20.7818584,0.859734513 C21.4044248,0.355752212 22.2938053,0.118584071 23.45,0.118584071 L30.9207965,0.118584071 C33.440708,0.118584071 35.2787611,0.592920354 36.4646018,1.54159292 C37.6504425,2.49026549 38.2433628,3.94292035 38.2433628,5.92920354 C38.2433628,8.33053097 37.3243363,10.2871681 35.4566372,11.8287611 C34.1225664,12.9256637 32.0473451,13.4889381 29.2309735,13.4889381 L26.5628319,13.4889381 L26.5628319,13.4889381 Z M28.460177,8.80486726 L30.0610619,8.80486726 C32.1362832,8.80486726 33.2035398,7.94513274 33.2035398,6.25530973 C33.2035398,5.27699115 32.6106195,4.80265487 31.4247788,4.80265487 L30.120354,4.80265487 L28.460177,8.80486726 Z" id="Shape"></path>
                        <path d="M44.0836283,11.5915929 C45.9809735,11.5915929 47.5225664,12.1845133 48.7676991,13.4 C49.9831858,14.6154867 50.6057522,16.1274336 50.6057522,17.9951327 C50.6057522,19.3884956 50.279646,20.7818584 49.6570796,22.1455752 C49.0048673,23.509292 48.1747788,24.6358407 47.1668142,25.4362832 C46.4849558,25.9699115 45.7734513,26.3256637 45.0619469,26.5331858 C44.3504425,26.740708 43.3128319,26.829646 42.0084071,26.829646 C39.8738938,26.829646 38.450885,26.5628319 37.7097345,26.0588496 C35.9606195,24.8433628 35.0712389,23.0942478 35.0712389,20.7225664 C35.0712389,18.2323009 35.9606195,16.0977876 37.7393805,14.2893805 C39.5181416,12.5106195 41.6526549,11.5915929 44.0836283,11.5915929 Z M43.609292,15.7716814 C42.6309735,15.7716814 41.7712389,16.2460177 40.9707965,17.1946903 C40.170354,18.1433628 39.7849558,19.2106195 39.7849558,20.3371681 C39.7849558,21.849115 40.6446903,22.6199115 42.3345133,22.6199115 C43.3128319,22.6199115 44.0836283,22.3234513 44.6172566,21.700885 C45.5066372,20.6929204 45.9513274,19.5367257 45.9513274,18.2619469 C45.9513274,17.5207965 45.7438053,16.9278761 45.299115,16.4535398 C44.8544248,16.0088496 44.2911504,15.7716814 43.609292,15.7716814 Z" id="Shape"></path>
                        <path d="M58.9362832,22.5902655 L63.8575221,22.5902655 C65.4880531,22.5902655 66.3181416,23.1831858 66.3181416,24.3393805 C66.3181416,25.139823 66.0216814,25.7623894 65.4584071,26.2070796 C64.8654867,26.6517699 64.0650442,26.859292 63.0274336,26.859292 L53.8964602,26.859292 C53.0960177,26.859292 52.4438053,26.6517699 51.969469,26.2663717 C51.4951327,25.8513274 51.2579646,25.3176991 51.2579646,24.6358407 C51.2579646,23.9836283 51.7026549,23.2128319 52.5623894,22.3530973 L58.9659292,16.1867257 L56.8017699,16.2756637 L56.2977876,16.2756637 C54.8747788,16.2756637 54.1632743,15.6827434 54.1632743,14.5265487 C54.1632743,13.7853982 54.4300885,13.1924779 54.9933628,12.6884956 C55.5566372,12.1845133 56.2384956,11.9473451 57.0389381,11.9473451 L57.5429204,11.9473451 L63.620354,11.9473451 C65.4287611,11.9473451 66.3477876,12.7181416 66.3477876,14.2597345 C66.3477876,15.060177 65.9327434,15.8606195 65.1026549,16.6610619 L58.9362832,22.5902655 Z" id="Shape"></path>
                        <path d="M72.7216814,22.5902655 L74.9451327,22.5902655 C76.5756637,22.5902655 77.4057522,23.1831858 77.4057522,24.3393805 C77.4057522,25.139823 77.109292,25.7623894 76.5460177,26.2070796 C75.9530973,26.6517699 75.1526549,26.859292 74.1150442,26.859292 L71.0022124,26.859292 C69.8460177,26.859292 68.9566372,26.6221239 68.3044248,26.1477876 C67.6522124,25.6734513 67.3261062,25.050885 67.3261062,24.2207965 C67.3261062,23.7761062 67.4743363,23.2424779 67.7411504,22.5902655 L70.9725664,14.6451327 L71.1800885,14.1115044 C71.7730088,12.6292035 72.7513274,11.8880531 74.0853982,11.8880531 C74.6190265,11.8880531 75.0933628,12.0659292 75.5084071,12.4216814 C75.8938053,12.7774336 76.1013274,13.2221239 76.1013274,13.7261062 C76.1013274,14.1411504 75.9234513,14.7933628 75.5676991,15.6530973 L72.7216814,22.5902655 Z M75.300885,5.63274336 C76.0716814,5.63274336 76.6942478,5.89955752 77.2278761,6.43318584 C77.7615044,6.96681416 78.0283186,7.61902655 78.0283186,8.36017699 C78.0283186,9.13097345 77.7615044,9.75353982 77.2278761,10.2871681 C76.6942478,10.8207965 76.0420354,11.0876106 75.300885,11.0876106 C74.5300885,11.0876106 73.9075221,10.8207965 73.3738938,10.2871681 C72.8402655,9.75353982 72.5734513,9.10132743 72.5734513,8.36017699 C72.5734513,7.58938053 72.8402655,6.96681416 73.3738938,6.43318584 C73.9075221,5.89955752 74.5300885,5.63274336 75.300885,5.63274336 Z" id="Shape"></path>
                        <path d="M87.9300885,11.8880531 L88.5230088,11.8880531 C90.1831858,11.8880531 91.0132743,12.4809735 91.0132743,13.6371681 C91.0132743,14.4376106 90.7168142,15.060177 90.1238938,15.5048673 C89.5309735,15.9495575 88.730531,16.1570796 87.6929204,16.1570796 L86.2699115,16.1570796 L83.6314159,22.5902655 L85.8252212,22.5902655 C87.4853982,22.5902655 88.3154867,23.1831858 88.3154867,24.3393805 C88.3154867,25.139823 88.0190265,25.7623894 87.4557522,26.2070796 C86.8628319,26.6517699 86.0623894,26.859292 85.0247788,26.859292 L81.5265487,26.859292 C80.5482301,26.859292 79.7477876,26.6221239 79.1548673,26.1774336 C78.5619469,25.7327434 78.2951327,25.110177 78.2951327,24.3097345 C78.2951327,23.8353982 78.4137168,23.3017699 78.650885,22.7088496 L79.0362832,21.849115 L81.3486726,16.1570796 L81.0522124,16.1570796 C79.5995575,16.1570796 78.8584071,15.5938053 78.8584071,14.4672566 C78.8584071,13.6668142 79.1548673,13.0146018 79.7181416,12.5699115 C80.3110619,12.1252212 81.1115044,11.8880531 82.149115,11.8880531 L83.0384956,11.8880531 L84.0761062,9.30884956 L84.2836283,8.77522124 C84.9061947,7.32256637 85.8548673,6.61106195 87.1889381,6.61106195 C87.7225664,6.61106195 88.1969027,6.78893805 88.5823009,7.14469027 C88.9676991,7.50044248 89.1455752,7.94513274 89.1455752,8.44911504 C89.1455752,8.95309735 88.9676991,9.57566372 88.6415929,10.3168142 L87.9300885,11.8880531 Z" id="Shape"></path>
                        <path d="M95.6380531,22.5902655 L97.8615044,22.5902655 C99.4920354,22.5902655 100.322124,23.1831858 100.322124,24.3393805 C100.322124,25.139823 100.025664,25.7623894 99.4623894,26.2070796 C98.869469,26.6517699 98.0690265,26.859292 97.0314159,26.859292 L93.9185841,26.859292 C92.7623894,26.859292 91.8730088,26.6221239 91.2207965,26.1477876 C90.5685841,25.6734513 90.2424779,25.050885 90.2424779,24.2207965 C90.2424779,23.7761062 90.390708,23.2424779 90.6575221,22.5902655 L93.8889381,14.6451327 L94.0964602,14.1115044 C94.6893805,12.6292035 95.6676991,11.8880531 97.0017699,11.8880531 C97.5353982,11.8880531 98.0097345,12.0659292 98.4247788,12.4216814 C98.810177,12.7774336 99.0176991,13.2221239 99.0176991,13.7261062 C99.0176991,14.1411504 98.839823,14.7933628 98.4840708,15.6530973 L95.6380531,22.5902655 Z M98.2172566,5.63274336 C98.9880531,5.63274336 99.6106195,5.89955752 100.144248,6.43318584 C100.677876,6.96681416 100.94469,7.61902655 100.94469,8.36017699 C100.94469,9.13097345 100.677876,9.75353982 100.144248,10.2871681 C99.6106195,10.8207965 98.9584071,11.0876106 98.2172566,11.0876106 C97.4464602,11.0876106 96.8238938,10.8207965 96.2902655,10.2871681 C95.7566372,9.75353982 95.489823,9.10132743 95.489823,8.36017699 C95.489823,7.58938053 95.7566372,6.96681416 96.2902655,6.43318584 C96.8238938,5.89955752 97.4761062,5.63274336 98.2172566,5.63274336 Z" id="Shape"></path>
                        <path d="M111.884071,11.8880531 L114.581858,11.8880531 C116.242035,11.8880531 117.072124,12.4809735 117.072124,13.6371681 C117.072124,14.4376106 116.775664,15.060177 116.212389,15.5048673 C115.619469,15.9495575 114.819027,16.1570796 113.781416,16.1570796 L110.164602,16.1570796 L101.359735,37.8283186 C100.618584,39.6070796 99.6106195,40.4964602 98.3061947,40.4964602 C97.7429204,40.4964602 97.2389381,40.3185841 96.8535398,39.9628319 C96.4681416,39.6070796 96.2606195,39.1623894 96.2606195,38.6584071 C96.2606195,38.2730088 96.4384956,37.6504425 96.7646018,36.790708 L105.154425,16.1274336 L103.820354,16.1274336 C102.160177,16.1274336 101.330088,15.5641593 101.330088,14.4376106 C101.330088,13.6371681 101.626549,12.9849558 102.189823,12.5402655 C102.782743,12.0955752 103.583186,11.8584071 104.620796,11.8584071 L106.844248,11.8584071 L109.334513,5.72168142 C110.164602,3.67610619 111.172566,2.25309735 112.328761,1.39336283 C113.484956,0.533628319 115.056195,0.118584071 117.012832,0.118584071 L119.236283,0.118584071 C120.89646,0.118584071 121.756195,0.681858407 121.756195,1.8380531 C121.756195,2.66814159 121.459735,3.29070796 120.866814,3.76504425 C120.273894,4.20973451 119.473451,4.44690265 118.406195,4.44690265 L117.813274,4.44690265 C116.716372,4.44690265 115.856637,4.65442478 115.204425,5.09911504 C114.581858,5.54380531 114.04823,6.28495575 113.60354,7.35221239 L111.884071,11.8880531 Z" id="Shape"></path>
                        <path d="M125.343363,11.8880531 L128.04115,11.8880531 C129.701327,11.8880531 130.531416,12.4809735 130.531416,13.6371681 C130.531416,14.4376106 130.234956,15.060177 129.671681,15.5048673 C129.078761,15.9495575 128.278319,16.1570796 127.240708,16.1570796 L123.623894,16.1570796 L114.819027,37.8283186 C114.077876,39.6070796 113.069912,40.4964602 111.765487,40.4964602 C111.202212,40.4964602 110.69823,40.3185841 110.312832,39.9628319 C109.927434,39.6070796 109.719912,39.1623894 109.719912,38.6584071 C109.719912,38.2730088 109.897788,37.6504425 110.223894,36.790708 L118.613717,16.1274336 L117.279646,16.1274336 C115.619469,16.1274336 114.789381,15.5641593 114.789381,14.4376106 C114.789381,13.6371681 115.085841,12.9849558 115.649115,12.5402655 C116.242035,12.0955752 117.042478,11.8584071 118.080088,11.8584071 L120.30354,11.8584071 L122.793805,5.72168142 C123.623894,3.67610619 124.631858,2.25309735 125.788053,1.39336283 C126.944248,0.533628319 128.515487,0.118584071 130.472124,0.118584071 L132.695575,0.118584071 C134.355752,0.118584071 135.215487,0.681858407 135.215487,1.8380531 C135.215487,2.66814159 134.919027,3.29070796 134.326106,3.76504425 C133.733186,4.20973451 132.932743,4.44690265 131.865487,4.44690265 L131.272566,4.44690265 C130.175664,4.44690265 129.315929,4.65442478 128.663717,5.09911504 C128.04115,5.54380531 127.507522,6.28495575 127.062832,7.35221239 L125.343363,11.8880531 Z" id="Shape"></path>
                    </g>
                    <path d="M38.8955752,65.1026549 L41.1190265,65.1026549 C42.7792035,65.1026549 43.609292,65.6955752 43.609292,66.8517699 C43.609292,67.6522124 43.3128319,68.2747788 42.7199115,68.719469 C42.1269912,69.1641593 41.3265487,69.3716814 40.2889381,69.3716814 L37.6504425,69.3716814 C36.6424779,69.3716814 35.9013274,68.9566372 35.4269912,68.1265487 C34.5969027,68.9566372 33.7075221,69.3716814 32.7588496,69.3716814 L30.2389381,69.3716814 C28.7862832,69.3716814 27.6300885,68.8676991 26.770354,67.8893805 C25.9106195,66.9110619 25.4659292,65.5769912 25.4659292,63.9464602 C25.4659292,61.4265487 26.3256637,59.1734513 28.0451327,57.1575221 C29.7646018,55.1415929 31.6915929,54.1336283 33.8261062,54.1336283 C35.3973451,54.1336283 36.6721239,54.6969027 37.5911504,55.8234513 C37.5911504,55.8234513 38.1840708,53.9557522 40.2,53.9557522 C40.7632743,53.9557522 41.2672566,54.2225664 41.6526549,54.5783186 C42.0380531,54.9340708 42.2455752,55.3787611 42.2455752,55.9123894 C42.2455752,56.3274336 41.830531,57.6022124 41.830531,57.6022124 L41.5044248,58.4026549 L38.8955752,65.1026549 Z M31.7212389,65.1915929 L32.4623894,65.1915929 C33.3517699,65.1915929 33.9446903,64.8358407 34.2411504,64.1243363 L35.7234513,60.5075221 C35.9013274,60.0628319 35.9902655,59.7367257 35.9902655,59.4995575 C35.9902655,59.1141593 35.8123894,58.7880531 35.4862832,58.4915929 C35.160177,58.2247788 34.7451327,58.0765487 34.2411504,58.0765487 C33.2331858,58.0765487 32.2845133,58.639823 31.3951327,59.7663717 C30.5057522,60.8929204 30.0610619,62.1380531 30.0610619,63.4424779 C30.0610619,64.5986726 30.6243363,65.1915929 31.7212389,65.1915929 Z" id="Shape"></path>
                    <g id="Group" transform="translate(56.030973, 0.000000)">
                        <path id="Shape"></path>
                        <polygon id="Shape" points="36.4053097 4.03185841 36.6553097 4.95088496"></polygon>
                        <path d="M103.523894,56.920354 C103.25708,56.920354 102.901327,57.1278761 102.901327,57.4243363 L102.901327,57.6318584 C102.901327,57.8690265 102.990265,57.8690265 103.10885,58.0469027 C102.930973,58.7584071 101.745133,61.930531 101.181858,61.930531 L100.885398,61.930531 C99.9960177,61.930531 99.0769912,63.8278761 98.6323009,64.4800885 L98.3061947,64.6283186 C98.0690265,64.5393805 98.4247788,64.5690265 98.0393805,64.5690265 L97.9504425,64.5690265 L91.4283186,63.709292 L91.3097345,63.7685841 L89.6792035,63.679646 C89.1455752,63.620354 88.789823,63.4721239 88.4637168,63.4721239 L88.2561947,63.4721239 C87.7818584,63.4721239 87.9300885,63.3831858 87.5446903,63.3831858 C87.070354,63.3831858 87.3964602,62.6123894 87.5150442,62.1084071 C87.6336283,61.6044248 87.7522124,61.1893805 87.8707965,60.7150442 C88.6119469,61.1004425 89.7977876,61.5154867 90.9243363,61.5154867 L91.6358407,61.5154867 L95.489823,61.1597345 L97.4168142,61.0707965 L98.750885,61.2190265 L100.470354,61.4561947 C100.144248,61.1300885 98.3061947,60.329646 97.7132743,60.0035398 C96.8238938,59.4995575 96.0530973,58.9362832 95.2526549,58.2840708 C93.770354,57.1575221 92.169469,55.6455752 89.8867257,55.4084071 L88.6712389,55.289823 L88.789823,54.1929204 L88.9084071,52.8588496 L88.8787611,49.8942478 L89.8867257,49.8942478 C92.139823,49.8942478 93.8889381,48.4415929 95.460177,47.6115044 C96.5274336,47.0482301 99.6106195,45.3880531 101.003982,45.3880531 L101.003982,45.299115 L99.3734513,45.299115 L97.9504425,45.210177 C96.7646018,45.0915929 95.549115,44.8544248 94.5707965,44.5876106 C93.8,44.3800885 92.050885,43.9650442 91.2207965,43.9650442 L90.5982301,43.9650442 C89.4420354,43.9650442 88.8787611,44.3207965 88.1672566,44.3800885 C88.1376106,43.2831858 87.5743363,41.4451327 87.2778761,40.4668142 C87.070354,39.7553097 86.1513274,37.2057522 86.1216814,36.85 C88.2561947,36.6721239 90.2721239,34.5672566 91.4876106,33.3517699 C92.2287611,32.6106195 92.9402655,31.9287611 93.829646,31.3061947 C94.1853982,31.0690265 96.3495575,29.5867257 96.4088496,29.4977876 C95.9938053,29.4977876 95.1044248,29.8238938 94.4818584,29.9128319 C93.8,30.0017699 93.4442478,30.15 92.5252212,30.209292 L90.6871681,30.3278761 L89.3530973,30.2982301 L87.7225664,30.3871681 C86.5070796,30.4761062 86.3884956,30.5650442 85.469469,30.8911504 C85.1730088,31.0097345 83.779646,31.810177 83.75,31.810177 C83.6314159,31.810177 82.030531,29.0827434 81.7933628,28.7862832 C81.4969027,28.400885 79.7477876,26.1477876 79.6884956,25.9106195 C80.4,25.7327434 81.5561947,24.4283186 81.9415929,23.8057522 C82.5048673,22.9163717 82.8902655,21.9380531 83.3646018,20.9597345 C83.8982301,19.9221239 84.3132743,19.0920354 84.9061947,18.1137168 C85.469469,17.1946903 86.1216814,16.4831858 86.7146018,15.6234513 C86.4477876,15.6827434 84.6097345,16.9871681 84.0761062,17.2539823 C83.1867257,17.6986726 82.119469,18.2619469 81.1411504,18.5880531 C80.1035398,18.9438053 79.1252212,19.3884956 78.1469027,19.8628319 C77.5539823,20.159292 76.1013274,21.3747788 75.9530973,21.9380531 C75.5973451,21.9084071 73.0477876,19.7442478 72.4845133,19.3884956 C71.2393805,18.5584071 70.2017699,17.8765487 68.8084071,17.1353982 C69.4309735,16.2163717 70.1721239,15.149115 70.35,13.7853982 L70.5871681,11.8584071 L70.5575221,9.93141593 C70.5575221,8.86415929 70.7650442,7.91548673 70.8539823,6.87787611 C70.9429204,5.95884956 71.3876106,5.06946903 71.4469027,4.20973451 C71.4469027,4.20973451 69.7570796,6.61106195 69.5495575,6.90752212 C68.9269912,7.73761062 68.1265487,8.62699115 67.3853982,9.33849558 C65.4584071,11.2654867 64.6283186,11.769469 63.8871681,14.9119469 C63.2942478,14.8526549 61.2486726,14.1115044 60.4185841,13.9039823 C59.5884956,13.6964602 57.6318584,13.1628319 56.7721239,13.1628319 C56.4163717,13.1628319 56.3867257,13.0738938 56.0606195,13.0738938 C56.0606195,12.5106195 56.2681416,12.3623894 56.2681416,11.739823 L56.2681416,10.109292 C56.2681416,9.01238938 55.1119469,6.58141593 54.7561947,5.60309735 C54.4004425,4.65442478 53.5110619,1.95663717 53.5110619,0.830088496 C53.5110619,0.444690265 53.4517699,0.326106195 53.3035398,0.118584071 L53.0960177,1.54159292 C52.7995575,3.20176991 52.3845133,4.56548673 51.8212389,5.98849558 C51.4654867,6.90752212 50.4278761,9.16061947 50.4278761,10.1982301 L50.4278761,10.8207965 L50.5464602,12.7477876 L50.220354,12.7477876 C48.9455752,12.7477876 47.5818584,12.9256637 46.3663717,13.0442478 C45.299115,13.1628319 43.8464602,13.6371681 42.8088496,13.6371681 C42.8088496,13.1628319 42.6013274,12.8960177 42.6013274,12.5106195 C42.6013274,11.739823 41.6526549,9.99070796 41.2376106,9.48672566 C40.6446903,8.7159292 39.9331858,7.91548673 39.2513274,7.2039823 C38.539823,6.43318584 37.8876106,5.66238938 37.2946903,4.77300885 C36.9982301,4.3579646 35.8716814,2.28274336 35.6641593,2.13451327 L36.2274336,4.8619469 L36.4053097,7.61902655 C36.4646018,8.74557522 36.1088496,10.079646 36.2570796,10.9986726 L36.4646018,12.5106195 C36.6128319,13.429646 37.2946903,14.5265487 37.6800885,15.2676991 C37.0575221,15.5938053 36.2867257,15.8013274 35.6048673,16.1570796 C34.8933628,16.5128319 34.3300885,16.809292 33.6482301,17.1353982 C32.8774336,17.5207965 30.3278761,19.1513274 29.9424779,19.2402655 C29.4977876,17.5800885 26.740708,16.2756637 25.3473451,15.3862832 C24.4283186,14.7933628 23.7168142,14.3783186 22.8274336,13.7261062 C22.0566372,13.1331858 21.2561947,12.2734513 20.5743363,11.799115 C20.7225664,12.3920354 21.6119469,13.7261062 21.8787611,14.4672566 C22.2641593,15.4455752 22.5902655,16.3646018 22.9163717,17.4022124 C23.479646,19.2106195 24.0429204,21.789823 25.4362832,22.7088496 C25.169469,23.1238938 23.5389381,24.5765487 23.0053097,25.080531 C22.7384956,25.3473451 20.8411504,27.6004425 20.7522124,27.6004425 C20.7225664,27.6004425 19.7738938,26.770354 19.6256637,26.6814159 C19.2699115,26.4146018 18.8252212,26.2070796 18.380531,25.9995575 C17.5800885,25.6141593 16.3646018,25.199115 15.5048673,24.9026549 C14.5265487,24.5765487 13.6075221,24.1318584 12.7477876,23.6871681 C12.2438053,23.420354 10.5539823,22.2641593 10.2575221,22.2048673 C10.8207965,23.0349558 11.5323009,23.7464602 12.1548673,24.6951327 C12.7477876,25.5845133 13.2517699,26.4738938 13.7261062,27.3929204 C14.1707965,28.2823009 14.6451327,29.4088496 15.1787611,30.209292 C15.6234513,30.8615044 16.6314159,32.0769912 17.3725664,32.2845133 C17.3132743,32.8477876 14.3486726,38.0358407 13.9039823,39.9331858 C12.9553097,39.7256637 12.5995575,39.3106195 11.2654867,39.3106195 L6.67035398,39.3106195 C5.72168142,39.3106195 5.12876106,39.1623894 4.32831858,39.1030973 C3.58716814,39.0438053 2.78672566,38.7473451 2.19380531,38.6880531 C2.28274336,38.8066372 4.50619469,40.0814159 4.83230088,40.3185841 C5.6920354,40.9115044 6.37389381,41.4747788 7.14469027,42.1862832 C7.85619469,42.8384956 8.65663717,43.579646 9.42743363,44.1725664 C10.7318584,45.180531 10.9393805,44.8840708 12.2438053,45.5362832 L11.3247788,51.5247788 L11.2951327,53.2738938 L10.1982301,53.1553097 C8.65663717,52.9774336 4.59513274,54.6969027 2.13451327,54.6969027 L0.0889380531,54.6969027 C0.355752212,54.9340708 2.19380531,55.3787611 2.72743363,55.6159292 C3.58716814,55.9716814 4.26902655,56.2977876 5.09911504,56.7128319 C5.42522124,56.890708 5.89955752,57.1575221 6.40353982,57.4243363 C6.52212389,57.2761062 6.61106195,57.1575221 6.72964602,57.0389381 C8.44911504,55.0230088 10.3761062,54.0150442 12.5106195,54.0150442 C13.6075221,54.0150442 14.5561947,54.2818584 15.3269912,54.8451327 L15.3269912,54.4893805 L15.3566372,52.2362832 L15.6827434,48.9752212 L15.6530973,48.7676991 C15.6530973,48.3526549 15.8606195,48.1154867 15.8606195,47.5522124 C15.8606195,46.4553097 16.9871681,42.8681416 17.3429204,41.800885 C17.9358407,39.9924779 18.6473451,38.3915929 19.4477876,36.790708 C20.7818584,34.0929204 23.3017699,30.3871681 25.2880531,28.3712389 C27.9265487,25.7327434 29.9128319,23.9539823 33.2331858,21.9380531 C35.219469,20.7225664 40.6446903,18.0247788 43.3424779,17.7876106 C43.4017699,18.499115 43.9057522,18.9141593 44.6765487,18.9141593 L45.8920354,18.9141593 L48.2340708,18.6769912 L48.4415929,18.7066372 C48.6787611,18.7066372 48.8566372,18.8845133 48.8566372,19.1216814 L48.560177,25.0212389 L48.3230088,27.6597345 L47.9079646,33.6778761 L47.9376106,37.3539823 L48.1747788,41.830531 L48.3823009,45.5066372 L48.4712389,47.8486726 C48.4712389,48.1154867 48.500885,48.1154867 48.560177,48.3526549 C49.1234513,48.2044248 49.7756637,46.9889381 51.1097345,46.8110619 L52.1176991,46.6924779 L52.2362832,46.7221239 C54.0150442,46.7221239 56.1199115,48.589823 56.1199115,50.3982301 L56.1199115,50.4871681 C56.1199115,53.4221239 51.0207965,57.7800885 49.2716814,59.5292035 C47.9079646,60.8929204 46.959292,62.4048673 45.9809735,64.1836283 C45.4769912,65.0730088 44.9730088,65.7845133 44.4690265,66.6442478 C43.8168142,67.7411504 43.579646,67.9783186 41.9787611,68.1265487 L40.7632743,68.2451327 L40.4668142,68.2154867 L38.8362832,68.0079646 C36.5535398,67.6522124 34.0336283,66.2292035 32.4327434,65.1619469 C31.0986726,64.2725664 28.3712389,62.1084071 27.4225664,60.8929204 C26.0588496,59.1141593 24.5765487,57.6911504 23.509292,55.5269912 C22.5013274,53.5110619 21.6415929,51.1986726 21.6415929,48.2340708 L21.6415929,46.6035398 L21.730531,45.0619469 C21.9380531,42.5716814 22.7681416,40.3778761 23.7464602,38.599115 C24.5172566,37.2057522 26.6221239,35.160177 28.6676991,35.160177 L30.209292,35.160177 C35.4269912,35.160177 43.7575221,43.0756637 43.7575221,48.2044248 L43.7575221,49.1234513 C43.7575221,51.2876106 42.5420354,53.4517699 41.4451327,54.5486726 C40.4075221,55.5862832 38.2137168,56.979646 36.2274336,56.979646 L35.0119469,56.979646 C31.6915929,56.979646 27.5707965,53.4221239 27.5707965,50.25 L27.5707965,49.9535398 L27.6597345,48.8269912 C27.8969027,46.5442478 30.3278761,44.3504425 32.8774336,44.3504425 L33.0849558,44.3504425 C35.5159292,44.3504425 38.2730088,46.6331858 38.2730088,48.9455752 C38.2730088,50.190708 37.1168142,51.1986726 35.8420354,51.1986726 L35.7530973,51.1986726 C34.9823009,51.1986726 34.0929204,50.6650442 33.9150442,50.0721239 C34.4190265,50.190708 34.5672566,50.3685841 35.249115,50.3685841 C35.9013274,50.3685841 36.3756637,49.4199115 36.3756637,48.8269912 C36.3756637,47.9969027 35.189823,47.1964602 34.3300885,47.1964602 L33.9150442,47.1964602 C33.2628319,47.1964602 32.5809735,48.0265487 32.5809735,48.7380531 L32.5809735,49.1530973 C32.5809735,50.5464602 34.2411504,51.910177 35.8420354,51.910177 L36.1384956,51.910177 C37.6504425,51.910177 39.4884956,50.5168142 39.4884956,49.0641593 L39.4884956,48.3526549 C39.4884956,47.1371681 38.1840708,45.6845133 37.4725664,45.0619469 C36.5238938,44.2615044 35.4566372,43.609292 33.8853982,43.4610619 L32.6699115,43.3424779 C31.0393805,43.2238938 28.8455752,44.4986726 28.0451327,45.269469 C27.2743363,46.0402655 25.8513274,48.0858407 26.0292035,49.6867257 L26.1181416,50.6946903 C26.6221239,54.7561947 31.3061947,58.3433628 36.0199115,58.3433628 C41.3858407,58.3433628 46.2181416,54.0743363 46.2181416,48.7676991 C46.2181416,41.6230088 36.0495575,32.8774336 28.6973451,32.8774336 C25.2287611,32.8774336 22.9756637,34.9526549 21.5823009,37.0575221 C20.3371681,38.9252212 19.0327434,42.7199115 19.0327434,45.8327434 L19.0327434,48.3823009 C19.0327434,50.4871681 19.5070796,52.4734513 20.2778761,54.3115044 C20.3371681,54.3707965 20.4261062,54.4300885 20.4853982,54.4893805 C20.8707965,54.8451327 21.0783186,55.289823 21.0783186,55.8234513 C21.0783186,55.8827434 21.0783186,55.9420354 21.0486726,56.0013274 C22.5013274,58.7880531 24.4876106,61.1597345 26.2070796,62.8495575 C28.9641593,65.6362832 35.0712389,70.1128319 40.4371681,70.1128319 L41.0597345,70.1128319 C42.4530973,70.1128319 43.55,69.6384956 44.6172566,69.4013274 L44.6172566,69.6977876 L44.5283186,73.2553097 L44.2911504,77.4353982 L44.2022124,81.1115044 C44.2022124,82.000885 44.9730088,84.5504425 45.239823,85.2915929 C45.6548673,86.4774336 46.1588496,87.9300885 46.1588496,89.4420354 L46.1588496,89.7384956 L46.0699115,90.8650442 C45.8920354,92.4659292 44.7358407,93.2960177 44.7358407,94.5411504 L44.7358407,94.7486726 C44.7358407,95.489823 45.4769912,96.2309735 45.9216814,96.6163717 C46.7221239,97.2982301 47.2557522,97.2685841 47.8783186,97.7132743 L48.8862832,97.7132743 C49.5977876,97.209292 50.309292,97.0017699 50.309292,95.6676991 L50.309292,95.2526549 C50.309292,91.4283186 46.840708,87.8411504 46.840708,84.1353982 L46.840708,83.4238938 C46.840708,81.5561947 47.8783186,79.0659292 48.649115,77.9097345 C49.3902655,76.8128319 51.1690265,74.7672566 52.8588496,74.7672566 C53.2442478,74.7672566 53.0960177,74.6783186 53.570354,74.6783186 C55.289823,74.6783186 57.4243363,75.9530973 58.4619469,76.7238938 C59.5588496,77.4946903 61.0115044,79.3327434 61.0115044,81.2004425 L61.0115044,82.2084071 C61.0115044,83.690708 60.0628319,86.3292035 59.5588496,87.3668142 C59.2327434,88.0486726 57.5429204,91.4283186 57.5429204,91.9915929 L57.5429204,92.4066372 C57.5429204,93.829646 60.5075221,95.6676991 62.019469,95.6676991 L62.4345133,95.6676991 C63.2646018,95.6676991 65.0730088,93.9185841 65.0730088,93.0292035 L65.0730088,92.7327434 C65.0730088,90.8353982 60.8039823,90.509292 60.8039823,89.8867257 L60.8039823,89.7977876 C60.8039823,89.0269912 63.2053097,86.1809735 63.679646,84.9061947 C64.3022124,83.2460177 66.1106195,81.5265487 66.3181416,79.6884956 L66.4070796,78.680531 L66.4070796,78.1765487 C66.4070796,75.6566372 64.2429204,73.1070796 62.9088496,71.7730088 C62.5234513,71.3876106 61.989823,71.0022124 61.5451327,70.7057522 C60.8632743,70.2610619 60.7150442,70.0831858 60.1814159,69.5199115 C59.2030973,68.5415929 58.550885,68.0969027 58.2840708,66.4367257 L58.1654867,65.6362832 C58.1061947,65.1915929 58.2544248,65.0730088 58.2544248,64.7172566 C58.2544248,63.7685841 59.1141593,62.4345133 59.5588496,61.8415929 C60.1221239,61.1300885 61.2486726,60.6261062 62.5234513,60.6261062 L63.2349558,60.6261062 C64.0057522,60.6261062 65.1619469,61.4858407 65.1619469,62.049115 L65.1619469,63.3831858 C65.1619469,63.620354 65.339823,63.7982301 65.5769912,63.7982301 L65.7845133,63.7982301 C67.029646,63.7982301 67.8597345,64.1539823 68.9269912,64.3022124 L73.6110619,65.0137168 L73.9075221,65.0433628 L76.7535398,65.4287611 C77.3464602,65.5176991 77.5836283,65.5473451 78.1765487,65.6362832 L81.3486726,66.0216814 L81.8526549,66.1402655 C81.3783186,68.2154867 77.7022124,73.9371681 76.3681416,75.449115 C75.1230088,76.8424779 74.1743363,77.9393805 72.8402655,79.2734513 C72.3362832,79.7774336 69.1938053,82.4159292 68.689823,82.5641593 C68.749115,83.2460177 69.2234513,84.0761062 69.6384956,84.4615044 C69.8756637,84.6986726 70.9429204,85.7659292 71.0318584,85.9141593 C71.8323009,85.380531 72.6327434,84.7579646 73.4035398,84.1057522 C73.640708,83.8982301 75.6862832,82.149115 75.7159292,82.149115 C75.7455752,82.149115 76.6349558,82.8902655 76.7831858,83.0088496 C77.2575221,83.3349558 77.4650442,83.4831858 78.0283186,83.690708 C78.9769912,84.0464602 79.9849558,84.3132743 81.0225664,84.6690265 C82.119469,85.0544248 82.9495575,85.2619469 83.9278761,85.7362832 C84.5207965,86.0030973 86.2106195,86.9517699 86.5663717,87.070354 L86.8924779,87.2482301 L86.5663717,86.9517699 C85.9141593,86.2106195 85.350885,85.6769912 84.7283186,84.8172566 C84.1057522,83.9871681 83.6610619,83.2756637 83.0977876,82.3862832 C82.5641593,81.5561947 82.1787611,80.6964602 81.6451327,79.8663717 C81.4079646,79.5402655 81.0225664,78.9769912 80.7557522,78.710177 C80.4,78.3544248 79.8960177,78.1172566 79.6588496,77.7615044 C80.0738938,76.990708 80.9632743,75.9530973 81.5265487,75.1230088 C82.119469,74.2336283 82.7420354,73.2849558 83.2460177,72.3362832 C84.2539823,72.8699115 85.5880531,73.759292 87.129646,73.759292 L87.5446903,73.759292 C87.8707965,73.759292 88.4340708,73.9668142 88.760177,73.9668142 L89.1752212,73.9668142 C89.7681416,73.9668142 91.7544248,74.3522124 92.2880531,74.5300885 C92.8216814,74.7079646 94.8969027,75.389823 95.1933628,75.419469 C94.9858407,75.1230088 93.2960177,73.9964602 92.7623894,73.4628319 C91.9619469,72.6623894 91.3690265,72.039823 90.6278761,71.2097345 C89.2641593,69.7274336 88.0486726,67.8004425 85.7955752,67.2668142 L85.9141593,66.6442478 L89.0566372,66.7628319 L94.6597345,66.8814159 L96.4977876,66.8814159 C96.8831858,66.8814159 96.5274336,66.9110619 96.7942478,66.7924779 L97.7132743,66.7924779 C97.6539823,67.6818584 96.4977876,69.2234513 96.4977876,69.9646018 L96.4977876,70.0535398 C96.4977876,70.4389381 97.6243363,71.2690265 97.9800885,71.4172566 C98.810177,71.7730088 99.1659292,72.010177 100.35177,72.010177 L100.440708,72.010177 C100.855752,72.010177 101.715487,69.9942478 101.774779,69.5495575 L102.990265,69.5495575 C103.346018,69.5495575 103.70177,69.3716814 103.70177,69.0455752 L103.70177,68.5415929 C103.70177,68.2451327 104.828319,66.940708 104.828319,65.9030973 C104.828319,65.399115 104.413274,65.1915929 104.027876,65.1026549 C104.057522,64.7765487 104.116814,64.7469027 104.116814,64.3911504 L104.116814,64.0946903 C104.116814,63.3238938 103.790708,63.3238938 103.494248,62.8792035 C104.235398,61.3376106 104.383628,60.5371681 105.332301,59.1141593 C105.776991,59.1141593 105.836283,59.0252212 106.043805,58.8176991 L106.043805,58.3137168 C105.836283,58.0172566 103.938938,56.920354 103.523894,56.920354 Z M64.2132743,52.8588496 C64.2132743,51.969469 64.4800885,51.1097345 65.0137168,50.6946903 C65.369469,50.3982301 66.3774336,49.5977876 66.8814159,49.5977876 C68.1858407,49.5977876 68.1265487,52.0287611 70.0535398,52.0287611 L70.6761062,52.0287611 C71.6544248,52.0287611 72.7216814,51.1393805 72.7216814,50.190708 C72.7216814,49.0345133 71.1800885,48.2044248 71.1800885,47.2261062 C71.1800885,46.5738938 71.4765487,46.2774336 71.4765487,45.6845133 L71.4765487,45.269469 C71.4765487,42.9274336 69.8163717,41.1783186 67.4150442,41.1783186 L67.2075221,41.1783186 C66.3774336,41.1783186 66.5553097,40.259292 66.0513274,39.6663717 C65.6659292,39.2216814 65.1619469,38.7176991 64.3318584,38.7176991 L63.9168142,38.7176991 C62.9681416,38.7176991 61.6637168,39.6367257 61.6637168,40.5557522 L61.6637168,40.9707965 C61.6637168,42.0973451 63.2053097,43.4610619 63.2053097,44.3207965 L63.2053097,44.7358407 C63.2053097,45.8623894 61.2783186,47.7004425 60.0331858,47.7004425 C57.9579646,47.7004425 55.349115,42.7495575 54.3707965,41.1486726 C52.8292035,38.6584071 51.5840708,35.6938053 51.5840708,31.7212389 L51.5840708,30.5946903 L51.7619469,27.9561947 C52.0287611,24.9619469 52.7106195,22.2048673 52.7106195,19.0920354 L52.7106195,16.9575221 L54.9637168,17.1650442 C63.2349558,18.0544248 69.9053097,21.8787611 74.5004425,26.4738938 C78.8287611,30.8022124 83.2460177,37.8876106 84.3132743,45.3880531 L84.6690265,47.8190265 L84.8469027,50.4871681 L84.8172566,52.7402655 L84.7283186,54.7858407 C84.6393805,56.2977876 84.4318584,57.5429204 84.1946903,58.9362832 C84.0168142,59.9442478 83.3646018,61.7823009 83.3053097,62.6123894 C79.9849558,62.6123894 75.330531,59.8849558 72.8699115,58.669469 C71.1800885,57.8393805 69.7274336,57.2168142 67.7411504,56.6535398 C66.2884956,56.2384956 66.2588496,56.6238938 65.2212389,55.5862832 C64.7172566,55.0823009 64.2429204,53.9853982 64.2429204,53.0070796 L64.2429204,52.8588496 L64.2132743,52.8588496 Z M36.4053097,4.03185841 L36.4053097,4.03185841 L36.5535398,4.95088496 L36.4053097,4.03185841 Z M4.95088496,39.6070796 C4.50619469,39.5774336 4.62477876,39.5477876 4.23938053,39.5181416 C4.59513274,39.5477876 4.50619469,39.5774336 4.95088496,39.6070796 Z" id="Shape"></path>
                        <path d="M20.5446903,54.5486726 C20.4853982,54.4893805 20.4261062,54.4300885 20.3371681,54.3707965 C19.9814159,54.1039823 19.5663717,53.8964602 19.0920354,53.8964602 C17.0464602,53.8964602 16.4831858,55.7641593 16.4831858,55.7641593 C16.1867257,55.4084071 15.8902655,55.1415929 15.5345133,54.9044248 C14.7340708,54.3411504 13.8150442,54.0743363 12.7181416,54.0743363 C10.5836283,54.0743363 8.65663717,55.0823009 6.93716814,57.0982301 C6.81858407,57.2168142 6.72964602,57.3650442 6.61106195,57.4836283 C5.09911504,59.3809735 4.3579646,61.5154867 4.3579646,63.8871681 C4.3579646,65.5176991 4.80265487,66.8517699 5.66238938,67.8300885 C6.52212389,68.8084071 7.67831858,69.3123894 9.13097345,69.3123894 L11.6212389,69.3123894 C12.5699115,69.3123894 13.459292,68.8973451 14.2893805,68.0672566 C14.7637168,68.8973451 15.5048673,69.3123894 16.5128319,69.3123894 L19.1513274,69.3123894 C20.1889381,69.3123894 20.9893805,69.1048673 21.5823009,68.660177 C22.1752212,68.2154867 22.4716814,67.5929204 22.4716814,66.7924779 C22.4716814,65.6362832 21.6415929,65.0433628 19.9814159,65.0433628 L17.7579646,65.0433628 L20.3964602,58.3137168 L20.7225664,57.5132743 C20.7225664,57.5132743 21.0486726,56.5053097 21.1079646,56.0013274 C21.1079646,55.9420354 21.1376106,55.8827434 21.1376106,55.8234513 C21.1079646,55.349115 20.9300885,54.9340708 20.5446903,54.5486726 Z M14.5561947,60.4778761 L13.0738938,64.0946903 C12.7774336,64.8061947 12.1845133,65.1619469 11.2951327,65.1619469 L10.5539823,65.1619469 C9.45707965,65.1619469 8.92345133,64.5690265 8.92345133,63.4128319 C8.92345133,62.1084071 9.36814159,60.8632743 10.2575221,59.7367257 C10.4353982,59.4995575 10.6132743,59.3216814 10.7911504,59.1438053 C11.3247788,58.610177 11.8584071,58.2840708 12.4513274,58.1358407 C12.6588496,58.0765487 12.8960177,58.0469027 13.1331858,58.0469027 C13.6371681,58.0469027 14.0522124,58.1951327 14.3783186,58.4619469 C14.7044248,58.7287611 14.8823009,59.0548673 14.8823009,59.4699115 C14.8526549,59.7070796 14.7637168,60.0331858 14.5561947,60.4778761 Z" id="Shape"></path>
                    </g>
                    <path d="M28.2823009,72.3362832 C28.1933628,71.0911504 27.0964602,70.1424779 25.8513274,70.2314159 C25.7623894,70.2314159 16.9278761,70.8539823 11.9473451,69.8756637 C11.9176991,69.8756637 8.7159292,68.9269912 8.47876106,65.6659292 C8.30088496,63.3238938 8.80486726,61.5154867 9.72389381,59.1734513 C10.079646,58.2840708 10.6429204,56.979646 11.4730088,55.6752212 L17.4911504,55.7641593 L17.9061947,55.7641593 C23.0646018,55.7641593 26.3553097,54.1632743 27.6893805,51.0504425 C28.3712389,49.4495575 28.3712389,47.7597345 27.6597345,46.2181416 C26.9778761,44.7061947 25.7920354,43.579646 24.1318584,42.8681416 C22.7977876,42.3048673 21.3154867,42.1269912 19.6849558,42.3345133 C18.1433628,42.5420354 16.6314159,43.0460177 15.1787611,43.8761062 C12.5106195,45.3880531 10.079646,47.9672566 8.50840708,51.5247788 L5.15840708,51.5840708 C4.00221239,51.6137168 3.05353982,52.5623894 3.08318584,53.7185841 C3.11283186,54.8747788 4.03185841,55.7938053 5.1880531,55.7938053 L5.21769912,55.7938053 L6.28495575,55.7641593 C5.98849558,56.3867257 5.75132743,56.979646 5.51415929,57.5132743 C4.38761062,60.3889381 3.70575221,62.8199115 3.94292035,66.0216814 C4.38761062,71.7433628 9.33849558,73.9964602 11.0283186,74.3522124 C13.6075221,74.8561947 16.9278761,75.0044248 19.8035398,75.0044248 C23.1831858,75.0044248 25.9402655,74.7969027 26.1477876,74.7969027 C27.4225664,74.6783186 28.3712389,73.6110619 28.2823009,72.3362832 Z M17.2243363,47.5225664 C18.2026549,46.959292 19.1809735,46.6331858 20.159292,46.5146018 C21.0486726,46.3960177 21.819469,46.4849558 22.4420354,46.7517699 C23.3314159,47.1371681 23.6278761,47.6115044 23.7761062,47.9672566 C24.0132743,48.4712389 23.9836283,48.8862832 23.7761062,49.4199115 C23.3314159,50.4278761 21.9084071,51.6433628 17.5207965,51.5840708 L13.2517699,51.5247788 L13.1924779,51.4654867 C14.2893805,49.6570796 15.8013274,48.3230088 17.2243363,47.5225664 Z" id="Shape"></path>
                </g>
            </g>
        </g>
    </g>
</svg>