<?xml version="1.0" encoding="UTF-8" standalone="no"?>
<svg width="183px" height="134px" viewBox="0 0 183 134" version="1.1" xmlns="http://www.w3.org/2000/svg" xmlns:xlink="http://www.w3.org/1999/xlink">
    <!-- Generator: Sketch 41.1 (35376) - http://www.bohemiancoding.com/sketch -->
    <title>hostel_logo_out_outline-02</title>
    <desc>Created with Sketch.</desc>
    <defs></defs>
    <g id="Page-1" stroke="none" stroke-width="1" fill="none" fill-rule="evenodd">
        <g id="pozitiff-site" transform="translate(-151.000000, -694.000000)" fill="#FFFFFF">
            <g id="hostel_logo_out_outline-02" transform="translate(151.000000, 694.000000)">
                <g id="Group">
                    <g id="Layer_2" transform="translate(75.893805, 0.000000)">
                        <g id="Group">
                            <g id="Shape">
                                <path d="M33.0849558,48.8862832 C33.0849558,50.279646 34.1225664,51.7026549 35.4269912,51.7323009 C34.6561947,51.1986726 33.529646,50.9318584 33.5,49.6867257 C34.0632743,49.7460177 34.5079646,50.309292 35.130531,50.309292 L35.4269912,50.309292 C35.8420354,50.309292 36.2570796,49.5384956 36.2570796,49.0938053 C36.2570796,48.530531 35.219469,47.7597345 34.6265487,47.7597345 L34.2115044,47.7597345 C33.6778761,47.7597345 33.0849558,48.3823009 33.0849558,48.8862832 Z"></path>
                                <path d="M97.15,66.7331858 L97.9800885,66.8221239 L98.899115,64.6579646 L98.780531,64.5690265 L98.5730088,64.9840708 L97.4464602,64.9840708 C96.8535398,64.9840708 96.6460177,64.7765487 96.2309735,64.7765487 L96.0234513,64.7469027 L91.0429204,64.1539823 L90.8353982,64.1836283 L89.2048673,63.9761062 L87.5743363,63.7389381 C87.3668142,63.709292 87.4261062,63.709292 87.2778761,63.65 L86.3588496,66.4960177 L86.7738938,66.4663717 L92.4659292,66.7035398 L96.1420354,66.7035398 C96.5274336,66.7035398 96.4088496,66.7331858 96.6460177,66.5849558 L97.15,66.7331858 Z"></path>
                                <polygon points="97.0610619 67.0331858 97.9800885 67.0331858 97.9800885 66.8831858 97.15 66.7331858"></polygon>
                                <path d="M95.6084071,47.7300885 C96.6756637,47.1668142 99.7588496,45.5066372 101.152212,45.5066372 L101.152212,45.4176991 L99.5216814,45.4176991 L98.0986726,45.3287611 C96.9128319,45.210177 95.6973451,44.9730088 94.7190265,44.7061947 C93.9482301,44.4986726 92.199115,44.0836283 91.3690265,44.0836283 L90.7464602,44.0836283 C89.5902655,44.0836283 89.0269912,44.4393805 88.3154867,44.4986726 C88.2858407,43.4017699 87.7225664,41.5637168 87.4261062,40.5853982 C87.2185841,39.8738938 86.2995575,37.3243363 86.2699115,36.9685841 C88.4044248,36.790708 90.420354,34.6858407 91.6358407,33.470354 C92.3769912,32.7292035 93.0884956,32.0473451 93.9778761,31.4247788 C94.3336283,31.1876106 96.4977876,29.7053097 96.5570796,29.6163717 C96.1420354,29.6163717 95.2526549,29.9424779 94.6300885,30.0314159 C93.9482301,30.120354 93.5924779,30.2685841 92.6734513,30.3278761 L90.8353982,30.4464602 L89.5013274,30.4168142 L87.8707965,30.5057522 C86.6553097,30.5946903 86.5367257,30.6836283 85.6176991,31.0097345 C85.3212389,31.1283186 83.9278761,31.9287611 83.8982301,31.9287611 C83.779646,31.9287611 82.1787611,29.2013274 81.9415929,28.9048673 C81.6451327,28.519469 79.8960177,26.2663717 79.8367257,26.0292035 C80.5482301,25.8513274 81.7044248,24.5469027 82.089823,23.9243363 C82.6530973,23.0349558 83.0384956,22.0566372 83.5128319,21.0783186 C84.0464602,20.040708 84.4615044,19.2106195 85.0544248,18.2323009 C85.6176991,17.3132743 86.2699115,16.6017699 86.8628319,15.7420354 C86.5960177,15.8013274 84.7579646,17.1057522 84.2243363,17.3725664 C83.3349558,17.8172566 82.2676991,18.380531 81.2893805,18.7066372 C80.2517699,19.0623894 79.2734513,19.5070796 78.2951327,19.9814159 C77.7022124,20.2778761 76.2495575,21.4933628 76.1013274,22.0566372 C75.7455752,22.0269912 73.1960177,19.8628319 72.6327434,19.5070796 C71.3876106,18.6769912 70.35,17.9951327 68.9566372,17.2539823 C69.5792035,16.3349558 70.320354,15.2676991 70.4982301,13.9039823 L70.7353982,11.9769912 L70.7057522,10.05 C70.7057522,8.98274336 70.9132743,8.0340708 71.0022124,6.99646018 C71.0911504,6.07743363 71.5358407,5.1880531 71.5951327,4.32831858 C71.5951327,4.32831858 69.9053097,6.72964602 69.6977876,7.02610619 C69.0752212,7.85619469 68.2747788,8.74557522 67.5336283,9.45707965 C65.6066372,11.3840708 64.7765487,11.8880531 64.0353982,15.030531 C63.4424779,14.9712389 61.3969027,14.2300885 60.5668142,14.0225664 C59.7367257,13.8150442 57.7800885,13.2814159 56.920354,13.2814159 C56.5646018,13.2814159 56.5349558,13.1924779 56.2088496,13.1924779 C56.2088496,12.6292035 56.4163717,12.4809735 56.4163717,11.8584071 L56.4163717,10.2278761 C56.4163717,9.13097345 55.260177,6.7 54.9044248,5.72168142 C54.5486726,4.77300885 53.659292,2.07522124 53.659292,0.948672566 C53.659292,0.563274336 53.6,0.444690265 53.4517699,0.237168142 L53.2442478,1.66017699 C52.9477876,3.32035398 52.5327434,4.6840708 51.969469,6.10707965 C51.6137168,7.02610619 50.5761062,9.27920354 50.5761062,10.3168142 L50.5761062,10.9690265 L50.6946903,12.8960177 L50.3685841,12.8960177 C49.0938053,12.8960177 47.7300885,13.0738938 46.5146018,13.1924779 C45.4473451,13.3110619 43.9946903,13.7853982 42.9570796,13.7853982 C42.9570796,13.3110619 42.7495575,13.0442478 42.7495575,12.6588496 C42.7495575,11.8880531 41.800885,10.1389381 41.3858407,9.63495575 C40.7929204,8.86415929 40.0814159,8.06371681 39.3995575,7.35221239 C38.6880531,6.58141593 38.0358407,5.81061947 37.4429204,4.92123894 C37.1464602,4.50619469 36.0199115,2.43097345 35.8123894,2.28274336 L36.3756637,5.01017699 L36.5535398,7.76725664 C36.6128319,8.89380531 36.2570796,10.2278761 36.4053097,11.1469027 L36.6128319,12.6588496 C36.7610619,13.5778761 37.4429204,14.6747788 37.8283186,15.4159292 C37.2057522,15.7420354 36.4349558,15.9495575 35.7530973,16.3053097 C35.0415929,16.6610619 34.4783186,16.9575221 33.7964602,17.2836283 C33.0256637,17.6690265 30.4761062,19.2995575 30.090708,19.3884956 C29.6460177,17.7283186 26.8889381,16.4238938 25.4955752,15.5345133 C24.5765487,14.9415929 23.8650442,14.5265487 22.9756637,13.8743363 C22.2048673,13.2814159 21.4044248,12.4216814 20.7225664,11.9473451 C20.8707965,12.5402655 21.760177,13.8743363 22.0269912,14.6154867 C22.4123894,15.5938053 22.7384956,16.5128319 23.0646018,17.5504425 C23.6278761,19.3588496 24.1911504,21.9380531 25.5845133,22.8570796 C25.3176991,23.2721239 23.6871681,24.7247788 23.1535398,25.2287611 C22.8867257,25.4955752 20.9893805,27.7486726 20.9004425,27.7486726 C20.8707965,27.7486726 19.9221239,26.9185841 19.7738938,26.829646 C19.4181416,26.5628319 18.9734513,26.3553097 18.5287611,26.1477876 C17.7283186,25.7623894 16.5128319,25.3473451 15.6530973,25.050885 C14.6747788,24.7247788 13.7557522,24.2800885 12.8960177,23.8353982 C12.3920354,23.5685841 10.7022124,22.4123894 10.4057522,22.3530973 C10.9690265,23.1831858 11.680531,23.8946903 12.3030973,24.8433628 C12.8960177,25.7327434 13.4,26.6221239 13.8743363,27.5411504 C14.3190265,28.430531 14.7933628,29.5570796 15.3269912,30.3575221 C15.7716814,31.0097345 16.779646,32.2252212 17.5207965,32.4327434 C17.4615044,32.9960177 14.4969027,38.1840708 14.0522124,40.0814159 C13.1035398,39.8738938 12.7477876,39.4588496 11.4137168,39.4588496 L6.81858407,39.4588496 C5.8699115,39.4588496 5.27699115,39.3106195 4.47654867,39.2513274 C3.73539823,39.1920354 2.93495575,38.8955752 2.3420354,38.8362832 C2.43097345,38.9548673 4.65442478,40.229646 4.98053097,40.4668142 C5.84026549,41.0597345 6.52212389,41.6230088 7.29292035,42.3345133 C8.00442478,42.9867257 8.80486726,43.7278761 9.57566372,44.3207965 C10.8800885,45.3287611 11.0876106,45.0323009 12.3920354,45.6845133 L11.4730088,51.6730088 L11.4433628,53.4221239 L10.3464602,53.3035398 C8.80486726,53.1256637 4.74336283,54.8451327 2.28274336,54.8451327 L0.237168142,54.8451327 C0.503982301,55.0823009 2.3420354,55.5269912 2.87566372,55.7641593 C3.73539823,56.1199115 4.41725664,56.4460177 5.24734513,56.8610619 C6.34424779,57.3946903 8.7159292,59.0252212 9.90176991,59.1438053 L11.1172566,59.2623894 L11.3247788,59.2623894 C11.4137168,59.1438053 11.5026549,59.0548673 11.6212389,58.9362832 L10.8207965,58.9362832 C9.13097345,58.9362832 7.64867257,57.8097345 6.46283186,57.1575221 C5.75132743,56.7721239 5.1880531,56.4460177 4.44690265,56.0902655 C3.82433628,55.7938053 2.72743363,55.4676991 2.25309735,55.1415929 C3.17212389,55.1415929 4.65442478,54.9044248 5.45486726,54.6672566 C5.84026549,54.5486726 8.18230088,53.9261062 8.36017699,53.9261062 C8.80486726,53.9261062 9.51637168,53.570354 9.99070796,53.6 L11.710177,53.7185841 L11.799115,52.1769912 L11.8584071,50.3389381 L12.6292035,45.3584071 C10.8207965,45.210177 9.19026549,43.7278761 8.12300885,42.7495575 C7.47079646,42.1566372 6.93716814,41.6230088 6.22566372,41.0597345 C5.84026549,40.7336283 4.3579646,39.7849558 4.1800885,39.5477876 C4.56548673,39.5774336 4.44690265,39.6367257 4.89159292,39.6367257 L7.23362832,39.7553097 L11.710177,39.7553097 C12.5106195,39.7553097 13.459292,40.3185841 14.1411504,40.4668142 C14.2597345,39.1327434 17.1946903,33.5 17.9061947,32.4030973 C16.3942478,31.6026549 15.149115,30.090708 14.4969027,28.400885 C14.2004425,27.6597345 13.6668142,26.5924779 13.2517699,25.9699115 C13.0738938,25.6734513 11.8287611,23.7464602 11.799115,23.6575221 C13.3110619,24.4579646 14.6747788,25.139823 16.4535398,25.7327434 C17.3429204,26.0292035 18.0544248,26.3256637 18.8252212,26.7110619 C19.2106195,26.9185841 19.5663717,27.0964602 19.8628319,27.3929204 C19.9814159,27.5115044 20.6632743,28.2230088 20.7522124,28.2230088 C20.7522124,28.2230088 25.050885,23.2424779 25.8513274,23.0349558 C25.8216814,22.6792035 24.7247788,21.5526549 24.4283186,20.9893805 C23.9539823,20.070354 23.8353982,19.4477876 23.5389381,18.439823 C23.2424779,17.5207965 23.0053097,16.690708 22.7088496,15.8013274 C22.4716814,15.060177 21.849115,13.9632743 21.700885,13.340708 C23.1535398,14.3190265 24.2800885,15.3862832 25.9995575,16.2756637 C27.2446903,16.9278761 29.4681416,18.410177 29.8238938,19.7738938 C29.9721239,19.7442478 33.3517699,17.7876106 33.7964602,17.5207965 C34.6858407,16.9871681 37.0871681,15.8309735 38.1840708,15.5938053 C38.0951327,15.2973451 37.3539823,14.2300885 37.1464602,13.6964602 C36.909292,13.1331858 36.5238938,11.9769912 36.5238938,11.2061947 L36.6721239,7.85619469 L36.5831858,6.22566372 L36.4646018,5.01017699 L36.3163717,4.09115044 C36.879646,4.74336283 37.3243363,5.72168142 37.9765487,6.40353982 C38.539823,6.99646018 39.3699115,7.94513274 39.8738938,8.59734513 C40.5853982,9.51637168 41.0300885,9.75353982 41.6230088,10.9097345 C41.9787611,11.5915929 42.4234513,13.1331858 42.4234513,14.1707965 C43.609292,14.1411504 45.4176991,13.459292 46.6035398,13.459292 L46.9,13.459292 L48.530531,13.2517699 L48.619469,13.2814159 L50.8429204,13.1628319 L50.6353982,11.2358407 L50.6353982,10.3761062 C50.6353982,8.44911504 53.1849558,4.59513274 53.1849558,2.22345133 C53.3331858,2.40132743 53.3924779,2.40132743 53.3924779,2.72743363 C53.3924779,3.26106195 54.3411504,5.95884956 54.5783186,6.52212389 C54.8747788,7.26327434 55.8234513,9.45707965 55.8234513,10.2575221 L55.8234513,11.5915929 C55.8234513,12.4809735 55.5566372,12.8960177 55.5269912,13.5185841 L55.8234513,13.5185841 C57.0389381,13.5185841 59.0252212,14.0225664 60.1517699,14.2893805 C60.9522124,14.4969027 63.590708,15.4455752 64.0946903,15.4455752 L64.0946903,15.030531 C64.0946903,14.5561947 64.8951327,12.6292035 65.1026549,12.2734513 C65.5176991,11.5619469 66.3181416,10.7911504 66.9110619,10.1982301 C67.5632743,9.5460177 68.1858407,9.01238938 68.749115,8.27123894 C69.2234513,7.64867257 69.9942478,6.75929204 70.5278761,6.16637168 L70.1128319,9.93141593 L70.1424779,10.8504425 L70.0238938,13.4 C69.9942478,14.0818584 69.6384956,15.000885 69.3716814,15.5048673 C69.1938053,15.8606195 69.0752212,16.1274336 68.8676991,16.4238938 C68.8084071,16.5424779 68.2747788,17.2539823 68.2747788,17.2539823 C68.2747788,17.3725664 71.8026549,19.5070796 72.1880531,19.7738938 C72.7513274,20.159292 75.6862832,22.5309735 75.8048673,22.5606195 C76.1606195,21.2858407 78.710177,19.8628319 80.0738938,19.3884956 C80.9632743,19.0920354 81.7933628,18.7066372 82.6827434,18.350885 C83.3942478,18.0544248 84.6690265,17.1946903 85.1730088,17.0761062 C84.7579646,17.8469027 84.1946903,18.5287611 83.779646,19.3588496 C83.3349558,20.2482301 82.9495575,20.9597345 82.5641593,21.9084071 C82.000885,23.2424779 80.5482301,25.5845133 79.1548673,25.9402655 C79.2141593,26.4738938 83.0681416,30.8911504 83.4238938,32.4623894 C84.6986726,31.6026549 85.6769912,30.9504425 87.6929204,30.8318584 L89.7384956,30.7429204 L91.2800885,30.7725664 L93.1181416,30.5650442 L94.5411504,30.3278761 C94.4522124,30.4464602 92.7327434,31.780531 92.4362832,31.9880531 C92.0212389,32.2845133 90.8650442,33.440708 90.45,33.8557522 C89.3530973,34.9526549 87.6632743,36.6424779 85.5880531,36.6424779 C85.5880531,36.9389381 86.6553097,39.9924779 86.8628319,40.5853982 C87.3075221,41.919469 87.5150442,43.490708 87.8411504,44.9137168 C88.6119469,44.7358407 89.2048673,44.4097345 90.1831858,44.4097345 L90.8057522,44.3800885 L91.9323009,44.4986726 C94.0668142,44.7061947 96.1716814,45.7141593 98.750885,45.7141593 C98.4544248,45.9809735 97.179646,46.3960177 96.7053097,46.6331858 C95.9938053,46.9889381 95.400885,47.2853982 94.7190265,47.7300885 C93.8,48.2933628 91.7840708,49.4792035 90.5685841,49.5977876 L89.2345133,49.6867257 L88.4340708,49.6867257 L88.4637168,51.6137168 L88.3451327,54.5783186 L88.2265487,55.6752212 L89.6495575,55.7938053 C91.6951327,55.9716814 93.0292035,57.1871681 94.3039823,58.1654867 C95.0154867,58.699115 95.6380531,59.2030973 96.3495575,59.6774336 C96.8535398,60.0331858 98.2469027,60.7150442 98.6026549,61.0115044 L96.8831858,60.8929204 L96.1716814,60.8632743 L90.8650442,61.2783186 C89.5013274,61.3969027 88.4340708,60.5668142 87.5150442,60.359292 C87.3075221,60.8039823 86.7442478,63.3238938 86.5367257,64.0650442 C86.2995575,64.8654867 85.380531,67 85.380531,67.5929204 C86.9221239,67.7115044 88.9676991,69.7274336 89.7088496,70.7946903 C90.1238938,71.3579646 90.9539823,72.3362832 91.4579646,72.8106195 C91.9026549,73.2553097 93.1774336,74.2929204 93.4146018,74.6190265 C92.9106195,74.5893805 92.5252212,74.3225664 92.199115,74.3225664 C91.7544248,74.3225664 91.8433628,74.1150442 91.3986726,74.1150442 C91.0429204,74.1150442 90.5389381,73.9668142 90.0646018,73.9075221 L88.6415929,73.7 L88.0190265,73.7 C85.9141593,73.7 84.4022124,72.8106195 83.1274336,71.980531 C82.5345133,73.0774336 81.9415929,74.0557522 81.2597345,75.0933628 C80.5778761,76.1309735 79.8070796,77.020354 79.1548673,77.9986726 C81.0225664,79.2438053 81.2004425,79.9553097 82.3566372,81.8230088 C82.8309735,82.5641593 83.1867257,83.2460177 83.6610619,83.9871681 C84.1353982,84.7283186 84.6986726,85.350885 85.1730088,86.0327434 C84.5800885,85.8845133 83.5721239,85.2619469 82.8309735,85.0247788 C82.000885,84.7579646 81.0522124,84.3725664 80.2221239,84.1650442 C78.9176991,83.8389381 76.2199115,82.8309735 75.8345133,81.7340708 C75.4787611,81.8230088 74.0261062,83.3349558 73.5221239,83.720354 C72.6327434,84.3725664 71.980531,84.9951327 71.0318584,85.6176991 C70.6168142,84.9951327 69.1048673,83.8685841 69.1048673,82.9792035 L69.1048673,82.7716814 C70.7650442,81.8823009 73.8185841,78.9176991 75.1526549,77.4946903 C76.9017699,75.5676991 78.5619469,73.2553097 79.8960177,70.9429204 C82.2973451,66.8221239 84.9951327,59.7960177 84.9951327,53.3035398 L84.9951327,50.6650442 C84.9951327,41.2376106 80.1628319,31.9287611 75.449115,27.2150442 C72.4845133,24.2504425 69.9646018,22.1752212 65.9920354,20.1889381 C62.9977876,18.6769912 57.3353982,16.75 52.9181416,16.75 L50.1610619,16.720354 L47.4039823,16.9575221 C38.569469,17.6690265 30.9207965,22.6199115 26.0884956,27.4225664 C24.8137168,28.6973451 23.420354,30.179646 22.4123894,31.6915929 C21.849115,32.5216814 21.3154867,33.2035398 20.8115044,34.0632743 C20.3668142,34.8340708 19.8628319,35.8420354 19.3588496,36.5831858 C17.8765487,38.8955752 15.8606195,45.1212389 15.4752212,48.619469 L15.119469,52.9181416 L15.089823,55.0526549 L15.2084071,56.7721239 C15.2380531,57.3650442 15.2973451,57.9283186 15.3566372,58.5212389 C15.4752212,58.669469 15.5938053,58.8176991 15.7123894,58.9955752 L15.5048673,57.0982301 L15.4159292,54.6376106 L15.4455752,52.3845133 L15.7716814,49.1234513 L15.7420354,48.9159292 C15.7420354,48.500885 15.9495575,48.2637168 15.9495575,47.7004425 C15.9495575,46.6035398 17.0761062,43.0163717 17.4318584,41.949115 C18.0247788,40.140708 18.7362832,38.539823 19.5367257,36.9389381 C20.8707965,34.2411504 23.390708,30.5353982 25.3769912,28.519469 C28.0154867,25.8809735 30.0017699,24.1022124 33.3221239,22.0862832 C35.3084071,20.8707965 40.7336283,18.1730088 43.4314159,17.9358407 C43.490708,18.6473451 43.9946903,19.0623894 44.7654867,19.0623894 L45.9809735,19.0623894 L48.3230088,18.8252212 L48.530531,18.8548673 C48.7676991,18.8548673 48.9455752,19.0327434 48.9455752,19.2699115 L48.649115,25.169469 L48.4119469,27.8079646 L47.9969027,33.8261062 L48.0265487,37.5022124 L48.2637168,41.9787611 L48.4712389,45.6548673 L48.560177,47.9969027 C48.560177,48.2637168 48.589823,48.2637168 48.649115,48.500885 C49.2123894,48.3526549 49.8646018,47.1371681 51.1986726,46.959292 L52.2066372,46.840708 L52.3252212,46.870354 C54.1039823,46.870354 56.2088496,48.7380531 56.2088496,50.5464602 L56.2088496,50.6353982 C56.2088496,53.570354 51.1097345,57.9283186 49.3606195,59.6774336 C47.9969027,61.0411504 47.0482301,62.5530973 46.0699115,64.3318584 C45.5659292,65.2212389 45.0619469,65.9327434 44.5579646,66.7924779 C43.9057522,67.8893805 43.6685841,68.1265487 42.0676991,68.2747788 L40.8522124,68.3933628 L40.5557522,68.3637168 L38.9252212,68.1561947 C36.6424779,67.8004425 34.1225664,66.3774336 32.5216814,65.310177 C31.1876106,64.4207965 28.460177,62.2566372 27.5115044,61.0411504 C26.1477876,59.2623894 24.6654867,57.8393805 23.5982301,55.6752212 C22.5902655,53.659292 21.730531,51.3469027 21.730531,48.3823009 L21.730531,46.840708 L21.819469,45.299115 C22.0269912,42.8088496 22.8570796,40.6150442 23.8353982,38.8362832 C24.6061947,37.4429204 26.7110619,35.3973451 28.7566372,35.3973451 L30.2982301,35.3973451 C35.5159292,35.3973451 43.8464602,43.3128319 43.8464602,48.4415929 L43.8464602,49.3606195 C43.8464602,51.5247788 42.6309735,53.6889381 41.5340708,54.7858407 C40.4964602,55.8234513 38.3026549,57.2168142 36.3163717,57.2168142 L35.100885,57.2168142 C31.780531,57.2168142 27.6597345,53.659292 27.6597345,50.4871681 L27.6597345,50.190708 L27.7486726,49.0641593 C27.9858407,46.7814159 30.4168142,44.5876106 32.9663717,44.5876106 L33.1738938,44.5876106 C35.6048673,44.5876106 38.3619469,46.870354 38.3619469,49.1827434 C38.3619469,50.4278761 37.2057522,51.4358407 35.9309735,51.4358407 L35.8420354,51.4358407 C35.0712389,51.4358407 34.1818584,50.9022124 34.0039823,50.309292 C34.5079646,50.4278761 34.6561947,50.6057522 35.3380531,50.6057522 C35.9902655,50.6057522 36.4646018,49.6570796 36.4646018,49.0641593 C36.4646018,48.2340708 35.2787611,47.4336283 34.4190265,47.4336283 L34.0039823,47.4336283 C33.3517699,47.4336283 32.6699115,48.2637168 32.6699115,48.9752212 L32.6699115,49.3902655 C32.6699115,50.7836283 34.3300885,52.1473451 35.9309735,52.1473451 L36.2274336,52.1473451 C37.7393805,52.1473451 39.5774336,50.7539823 39.5774336,49.3013274 L39.5774336,48.589823 C39.5774336,47.3743363 38.2730088,45.9216814 37.5615044,45.299115 C36.6128319,44.4986726 35.5455752,43.8464602 33.9743363,43.6982301 L32.7588496,43.579646 C31.1283186,43.4610619 28.9345133,44.7358407 28.1340708,45.5066372 C27.3632743,46.2774336 25.9402655,48.3230088 26.1181416,49.9238938 L26.2070796,50.9318584 C26.7110619,54.9933628 31.3951327,58.580531 36.1088496,58.580531 C41.4747788,58.580531 46.3070796,54.3115044 46.3070796,49.0048673 C46.3070796,41.860177 36.1384956,33.1146018 28.7862832,33.1146018 C25.3176991,33.1146018 23.0646018,35.189823 21.6712389,37.2946903 C20.4261062,39.1623894 19.1216814,42.9570796 19.1216814,46.0699115 L19.1216814,48.619469 C19.1216814,54.7265487 23.1831858,59.9442478 26.2663717,63.0570796 C29.0234513,65.8438053 35.130531,70.320354 40.4964602,70.320354 L41.1190265,70.320354 C42.5123894,70.320354 43.609292,69.8460177 44.6765487,69.6088496 L44.6765487,69.9053097 L44.5876106,73.4628319 L44.3504425,77.6429204 L44.2615044,81.3190265 C44.2615044,82.2084071 45.0323009,84.7579646 45.299115,85.499115 C45.7141593,86.6849558 46.2181416,88.1376106 46.2181416,89.6495575 L46.2181416,89.9460177 L46.1292035,91.0725664 C45.9513274,92.6734513 44.7951327,93.5035398 44.7951327,94.7486726 L44.7951327,94.9561947 C44.7951327,95.6973451 45.5362832,96.4384956 45.9809735,96.8238938 C46.7814159,97.5057522 47.3150442,97.4761062 47.9376106,97.9207965 L48.9455752,97.9207965 C49.6570796,97.4168142 50.3685841,97.209292 50.3685841,95.8752212 L50.3685841,95.460177 C50.3685841,91.6358407 46.9,88.0486726 46.9,84.3429204 L46.9,83.6314159 C46.9,81.7637168 47.9376106,79.2734513 48.7084071,78.1172566 C49.4495575,77.020354 51.2283186,74.9747788 52.9181416,74.9747788 C53.3035398,74.9747788 53.1553097,74.8858407 53.629646,74.8858407 C55.349115,74.8858407 57.4836283,76.1606195 58.5212389,76.9314159 C59.6181416,77.7022124 61.0707965,79.5402655 61.0707965,81.4079646 L61.0707965,82.4159292 C61.0707965,83.8982301 60.1221239,86.5367257 59.6181416,87.5743363 C59.2920354,88.2561947 57.6022124,91.6358407 57.6022124,92.199115 L57.6022124,92.6141593 C57.6022124,94.0371681 60.5668142,95.8752212 62.0787611,95.8752212 L62.4938053,95.8752212 C63.3238938,95.8752212 65.1323009,94.1261062 65.1323009,93.2367257 L65.1323009,92.9402655 C65.1323009,91.0429204 60.8632743,90.7168142 60.8632743,90.0942478 L60.8632743,90.0053097 C60.8632743,89.2345133 63.2646018,86.3884956 63.7389381,85.1137168 C64.3615044,83.4535398 66.1699115,81.7340708 66.3774336,79.8960177 L66.4663717,78.8880531 L66.4663717,78.3840708 C66.4663717,75.8641593 64.3022124,73.3146018 62.9681416,71.980531 C62.5827434,71.5951327 62.049115,71.2097345 61.6044248,70.9132743 C60.9225664,70.4685841 60.7743363,70.290708 60.240708,69.7274336 C59.2623894,68.749115 58.610177,68.3044248 58.3433628,66.6442478 L58.2247788,65.8438053 C58.1654867,65.399115 58.3137168,65.280531 58.3137168,64.9247788 C58.3137168,63.9761062 59.1734513,62.6420354 59.6181416,62.049115 C60.1814159,61.3376106 61.3079646,60.8336283 62.5827434,60.8336283 L63.2942478,60.8336283 C64.0650442,60.8336283 65.2212389,61.6933628 65.2212389,62.2566372 L65.2212389,63.590708 C65.2212389,63.8278761 65.399115,64.0057522 65.6362832,64.0057522 L65.8438053,64.0057522 C67.0889381,64.0057522 67.9190265,64.3615044 68.9862832,64.5097345 L73.670354,65.2212389 L73.9668142,65.250885 L76.8128319,65.6362832 C77.4057522,65.7252212 77.6429204,65.7548673 78.2358407,65.8438053 L81.4079646,66.2292035 L81.9119469,66.3477876 C81.4376106,68.4230088 77.7615044,74.1446903 76.4274336,75.6566372 C75.1823009,77.05 74.2336283,78.1469027 72.8995575,79.4809735 C72.3955752,79.9849558 69.2530973,82.6234513 68.749115,82.7716814 C68.8084071,83.4535398 69.2827434,84.2836283 69.6977876,84.6690265 C69.9349558,84.9061947 71.0022124,85.9734513 71.0911504,86.1216814 C71.8915929,85.5880531 72.6920354,84.9654867 73.4628319,84.3132743 C73.7,84.1057522 75.7455752,82.3566372 75.7752212,82.3566372 C75.8048673,82.3566372 76.6942478,83.0977876 76.8424779,83.2163717 C77.3168142,83.5424779 77.5243363,83.690708 78.0876106,83.8982301 C79.0362832,84.2539823 80.0442478,84.5207965 81.0818584,84.8765487 C82.1787611,85.2619469 83.0088496,85.469469 83.9871681,85.9438053 C84.5800885,86.2106195 86.2699115,87.159292 86.6256637,87.2778761 L86.6256637,87.1889381 C85.9734513,86.4477876 85.410177,85.9141593 84.7876106,85.0544248 C84.1650442,84.2243363 83.720354,83.5128319 83.1570796,82.6234513 C82.6234513,81.7933628 82.2380531,80.9336283 81.7044248,80.1035398 C81.4672566,79.7774336 81.0818584,79.2141593 80.8150442,78.9473451 C80.459292,78.5915929 79.9553097,78.3544248 79.7181416,77.9986726 C80.1331858,77.2278761 81.0225664,76.1902655 81.5858407,75.360177 C82.1787611,74.4707965 82.8013274,73.5221239 83.3053097,72.5734513 C84.3132743,73.1070796 85.6473451,73.9964602 87.1889381,73.9964602 L87.6039823,73.9964602 C87.9300885,73.9964602 88.4933628,74.2039823 88.819469,74.2039823 L89.2345133,74.2039823 C89.8274336,74.2039823 91.8137168,74.5893805 92.3473451,74.7672566 C92.8809735,74.9451327 94.9561947,75.6269912 95.2526549,75.6566372 C95.0451327,75.360177 93.3553097,74.2336283 92.8216814,73.7 C92.0212389,72.8995575 91.4283186,72.2769912 90.6871681,71.4469027 C89.3234513,69.9646018 88.1079646,68.0376106 85.8548673,67.5039823 L85.9734513,66.8814159 L89.1159292,67 L94.7190265,67.1185841 L96.5570796,67.1185841 C96.9424779,67.1185841 96.5867257,67.1482301 96.8535398,67.029646 L96.9424779,66.8221239 L96.4384956,66.7035398 C96.2013274,66.8221239 96.3199115,66.8221239 95.9345133,66.8221239 L92.2584071,66.8221239 L86.5663717,66.5849558 L86.1513274,66.6146018 L87.070354,63.7685841 C87.2185841,63.8278761 87.159292,63.8278761 87.3668142,63.8575221 L88.9973451,64.0946903 L90.6278761,64.3022124 L90.8353982,64.2725664 L95.8159292,64.8654867 L96.0234513,64.8951327 C96.4384956,64.8951327 96.6756637,65.1026549 97.2389381,65.1026549 L98.3654867,65.1026549 L98.5730088,64.6876106 L98.2469027,64.8358407 C98.0097345,64.7469027 98.3654867,64.7765487 97.9800885,64.7765487 L97.8911504,64.7765487 L91.3690265,63.9168142 L91.2504425,63.9761062 L89.6199115,63.8871681 C89.0862832,63.8278761 88.730531,63.679646 88.4044248,63.679646 L88.1969027,63.679646 C87.7225664,63.679646 87.8707965,63.590708 87.4853982,63.590708 C87.0110619,63.590708 87.3371681,62.8199115 87.4557522,62.3159292 C87.5743363,61.8119469 87.6929204,61.3969027 87.8115044,60.9225664 C88.5526549,61.3079646 89.7384956,61.7230088 90.8650442,61.7230088 L91.5765487,61.7230088 L95.430531,61.3672566 L97.3575221,61.2783186 L98.6915929,61.4265487 L100.411062,61.6637168 C100.084956,61.3376106 98.2469027,60.5371681 97.6539823,60.2110619 C96.7646018,59.7070796 95.9938053,59.1438053 95.1933628,58.4915929 C93.7110619,57.3650442 92.110177,55.8530973 89.8274336,55.6159292 L88.6119469,55.4973451 L88.730531,54.4004425 L88.849115,53.0663717 L88.819469,50.1017699 L89.8274336,50.1017699 C92.2584071,50.0128319 94.0371681,48.530531 95.6084071,47.7300885 Z M52.8588496,17.1057522 L55.1119469,17.3132743 C63.3831858,18.2026549 70.0535398,22.0269912 74.6486726,26.6221239 C78.9769912,30.9504425 83.3942478,38.0358407 84.4615044,45.5362832 L84.8172566,47.9672566 L84.9951327,50.6353982 L84.9654867,52.8884956 L84.8765487,54.9340708 C84.7876106,56.4460177 84.5800885,57.6911504 84.3429204,59.0845133 C84.1650442,60.0924779 83.5128319,61.930531 83.4535398,62.7606195 C80.1331858,62.7606195 75.4787611,60.0331858 73.0181416,58.8176991 C71.3283186,57.9876106 69.8756637,57.3650442 67.8893805,56.8017699 C66.4367257,56.3867257 66.4070796,56.7721239 65.369469,55.7345133 C64.8654867,55.230531 64.3911504,54.1336283 64.3911504,53.1553097 L64.3911504,52.9477876 C64.3911504,52.0584071 64.6579646,51.1986726 65.1915929,50.7836283 C65.5473451,50.4871681 66.5553097,49.6867257 67.059292,49.6867257 C68.3637168,49.6867257 68.3044248,52.1176991 70.2314159,52.1176991 L70.8539823,52.1176991 C71.8323009,52.1176991 72.8995575,51.2283186 72.8995575,50.279646 C72.8995575,49.1234513 71.3579646,48.2933628 71.3579646,47.3150442 C71.3579646,46.6628319 71.6544248,46.3663717 71.6544248,45.7734513 L71.6544248,45.3584071 C71.6544248,43.0163717 69.9942478,41.2672566 67.5929204,41.2672566 L67.3853982,41.2672566 C66.5553097,41.2672566 66.7331858,40.3482301 66.2292035,39.7553097 C65.8438053,39.3106195 65.339823,38.8066372 64.5097345,38.8066372 L64.0946903,38.8066372 C63.1460177,38.8066372 61.8415929,39.7256637 61.8415929,40.6446903 L61.8415929,41.0597345 C61.8415929,42.1862832 63.3831858,43.55 63.3831858,44.4097345 L63.3831858,44.8247788 C63.3831858,45.9513274 61.4561947,47.7893805 60.2110619,47.7893805 C58.1358407,47.7893805 55.5269912,42.8384956 54.5486726,41.2376106 C53.0070796,38.7473451 51.7619469,35.7827434 51.7619469,31.810177 L51.7619469,30.6836283 L51.939823,28.0451327 C52.2066372,25.050885 52.8884956,22.2938053 52.8884956,19.1809735 L52.8884956,17.1057522 L52.8588496,17.1057522 Z M33.0849558,48.8862832 C33.0849558,48.3823009 33.6778761,47.7597345 34.2115044,47.7597345 L34.6265487,47.7597345 C35.219469,47.7597345 36.2570796,48.530531 36.2570796,49.0938053 C36.2570796,49.5681416 35.8420354,50.309292 35.4269912,50.309292 L35.130531,50.309292 C34.5079646,50.309292 34.0632743,49.7460177 33.5,49.6867257 C33.529646,50.9318584 34.6858407,51.1986726 35.4269912,51.7323009 C34.1225664,51.7026549 33.0849558,50.279646 33.0849558,48.8862832 Z M74.9451327,65.0137168 L72.6030973,64.6876106 L72.3066372,64.6876106 C71.980531,64.6876106 69.9646018,64.3318584 69.4902655,64.2429204 C68.8973451,64.1243363 67.1482301,63.679646 66.7035398,63.679646 L65.6955752,63.679646 C65.6955752,62.6123894 65.9920354,62.2862832 65.369469,61.5747788 C65.0137168,61.1893805 64.3318584,60.5371681 63.65,60.5371681 L62.1084071,60.5371681 C60.0035398,60.5371681 58.0469027,63.2942478 58.0469027,65.4287611 L58.0469027,65.8438053 C58.0469027,67.4743363 58.699115,68.600885 59.5588496,69.4309735 C60.0035398,69.8756637 60.4185841,70.1721239 60.8929204,70.6464602 C61.3969027,71.1504425 61.900885,71.2690265 62.3752212,71.7137168 C63.65,72.8995575 66.3181416,75.7752212 66.3181416,78.0579646 L66.3181416,78.8880531 C66.3181416,81.2300885 64.5393805,82.9792035 63.709292,84.7283186 C63.0867257,86.0327434 62.8495575,86.3292035 62.1380531,87.4261062 C61.7823009,87.9893805 60.6261062,89.4420354 60.6261062,90.1831858 C60.6261062,91.0429204 65.0137168,91.1318584 65.0137168,93.0292035 L65.0137168,93.1181416 C65.0137168,93.9185841 63.3535398,95.549115 62.5827434,95.549115 L61.960177,95.549115 C60.9818584,95.549115 58.0765487,93.770354 58.0765487,92.4955752 L58.0765487,92.2880531 C58.0765487,91.5765487 59.7663717,88.4044248 60.1221239,87.6039823 C60.6853982,86.3884956 61.5451327,84.0168142 61.5451327,82.2973451 L61.5451327,81.1707965 C61.5451327,77.9690265 57.4836283,75.0933628 54.6079646,74.6486726 L53.8075221,74.5300885 C52.8884956,74.3818584 51.3469027,75.2415929 50.7836283,75.5973451 C49.9535398,76.1606195 49.3309735,76.8424779 48.7973451,77.6725664 C47.8190265,79.1548673 46.7814159,81.4079646 46.7814159,83.809292 L46.7814159,84.6393805 C46.7814159,86.2106195 47.8486726,88.2561947 48.2933628,89.4420354 C48.619469,90.2721239 50.0424779,93.1774336 50.0424779,94.0075221 C50.0424779,94.5411504 50.25,94.7190265 50.25,95.3415929 L50.25,95.430531 C50.25,96.5570796 49.8053097,97.5650442 48.7084071,97.5650442 C47.3150442,97.5650442 45.239823,96.0530973 45.239823,94.8079646 L45.239823,94.6004425 C45.239823,93.6517699 46.6628319,92.2584071 46.6628319,90.2128319 L46.6924779,89.5013274 L46.5738938,88.3747788 C46.3367257,86.1809735 44.5579646,83.0384956 44.7061947,80.7261062 L44.8247788,79.2141593 L44.8544248,77.5836283 L45.0026549,74.2039823 L45.239823,70.0238938 L45.239823,69.4013274 C45.239823,68.8084071 43.7278761,69.4902655 43.4017699,69.5792035 C42.8384956,69.7570796 41.6823009,69.9053097 40.9707965,69.9053097 C35.2787611,69.9053097 29.6163717,65.6066372 26.6814159,62.7013274 C23.420354,59.4402655 19.5663717,54.6079646 19.5663717,48.2044248 L19.5367257,45.9513274 L19.7738938,44.2318584 L19.7738938,43.9353982 C19.7738938,42.1269912 21.3451327,38.450885 22.1159292,37.3243363 C23.3017699,35.5455752 24.9026549,33.9743363 27.4225664,33.559292 L28.8455752,33.3517699 L28.9345133,33.3517699 C35.9902655,33.3517699 45.4769912,41.6230088 46.0699115,47.9079646 L46.1588496,49.1234513 C46.2477876,50.0424779 45.5362832,52.0880531 45.239823,52.6809735 C44.7358407,53.7185841 44.1132743,54.5783186 43.3424779,55.349115 C42.0973451,56.5942478 39.4292035,58.0765487 36.9982301,58.0765487 L35.5752212,58.0765487 C33.5889381,58.0765487 31.0097345,56.920354 29.9424779,55.9716814 C29.0530973,55.200885 28.7862832,54.9340708 28.0747788,53.9853982 C27.7783186,53.6 26.829646,51.910177 26.829646,51.3765487 C26.829646,50.9615044 26.6221239,50.7243363 26.6221239,50.1610619 L26.6221239,49.8646018 C26.6221239,48.3230088 27.6893805,46.4256637 28.519469,45.6548673 C29.2606195,44.9730088 31.3951327,43.7278761 32.8181416,43.8168142 L34.1522124,43.9353982 C36.4646018,44.1429204 39.4588496,46.4553097 39.4588496,48.8269912 L39.4588496,48.9159292 C39.4588496,50.5168142 37.8876106,51.7619469 36.3163717,51.7619469 L35.6048673,51.7619469 L35.6048673,51.6730088 L36.2274336,51.6730088 C37.5615044,51.6730088 38.8659292,50.4871681 38.8659292,49.2123894 L38.8659292,48.9159292 C38.8659292,46.5738938 35.8716814,44.2318584 33.2628319,44.2318584 C30.5057522,44.2318584 27.9561947,46.5146018 27.6597345,48.9159292 L27.5707965,49.9238938 C27.5115044,50.4575221 27.6597345,50.6946903 27.6597345,51.0504425 C27.6597345,52.4734513 29.4384956,54.7265487 30.3278761,55.4084071 C31.6323009,56.4163717 33.1442478,57.4539823 35.3973451,57.4539823 L36.5238938,57.4539823 C40.5853982,57.4539823 44.3800885,53.4221239 44.3800885,49.2123894 L44.3800885,48.7084071 C44.3800885,44.9730088 41.3561947,41.5340708 39.4292035,39.6070796 C38.2730088,38.450885 36.85,37.5022124 35.3973451,36.6128319 C34.5376106,36.0792035 31.3061947,34.7747788 29.9424779,34.9230088 L28.9345133,35.0415929 C24.4876106,35.5752212 22.5606195,40.170354 21.9084071,44.6172566 L21.700885,46.2477876 L21.6712389,48.7973451 L21.9084071,50.4278761 C22.7088496,55.8530973 25.4659292,59.1438053 28.6084071,62.2862832 C31.0097345,64.6876106 36.2570796,68.689823 40.8522124,68.689823 L41.5637168,68.689823 C42.7495575,68.689823 44.2318584,68.3637168 44.7061947,67.6522124 C45.269469,66.7924779 45.7734513,65.9920354 46.3070796,65.0730088 C47.3446903,63.3831858 48.3230088,61.4265487 49.6867257,60.0924779 C51.6433628,58.1654867 56.8314159,53.8668142 56.8314159,50.5464602 L56.8314159,50.25 C56.8314159,48.619469 54.4893805,46.5738938 52.7699115,46.5738938 L51.939823,46.5738938 C50.9318584,46.5738938 49.8349558,47.4632743 49.2123894,47.9079646 L49.0938053,45.9809735 L49.0938053,44.7654867 L48.8862832,41.800885 L48.8566372,40.8818584 L48.6787611,37.9172566 L48.619469,34.3597345 L48.9455752,29.3792035 L49.1530973,26.829646 L49.3902655,24.6951327 L49.3606195,24.1911504 L49.5681416,19.5960177 L49.5681416,19.2995575 C49.5681416,18.8252212 49.3309735,18.5880531 48.8566372,18.5880531 L48.7380531,18.5584071 L46.0995575,18.7955752 L45.3880531,18.8252212 L44.4690265,18.7066372 C44.2022124,18.2915929 44.0836283,18.5287611 44.0539823,17.9061947 C44.8840708,17.8469027 46.4553097,17.2836283 47.4039823,17.2836283 L47.8190265,17.2836283 L49.7460177,17.0761062 L52.5920354,17.0761062 L52.6216814,19.9221239 L52.3845133,21.849115 L52.3845133,22.2641593 L51.999115,25.110177 L51.7323009,26.829646 L51.4358407,30.5057522 L51.4061947,31.9287611 L51.5247788,33.6482301 C51.7619469,37.1168142 53.2146018,39.7256637 54.6376106,42.0380531 C55.5862832,43.609292 57.9876106,48.1154867 60.0628319,48.1154867 L60.270354,48.1154867 C61.5451327,48.1154867 63.620354,46.1588496 63.620354,44.9433628 L63.620354,44.3207965 C63.620354,43.520354 62.0787611,41.919469 62.0787611,41.1486726 L62.0787611,40.8522124 C62.0787611,39.8738938 63.1163717,39.1327434 64.1243363,39.1327434 L64.3318584,39.1327434 C65.4287611,39.1327434 66.3477876,40.2 66.3774336,41.2672566 C66.6738938,41.4154867 66.940708,41.5637168 67.3853982,41.5637168 C68.5415929,41.5637168 69.5495575,41.860177 70.1128319,42.5123894 C70.4982301,42.9867257 71.2690265,44.3207965 71.2690265,45.150885 L71.2690265,45.5659292 C71.2690265,46.3070796 70.9725664,46.5738938 70.9725664,47.1964602 L70.9725664,47.4929204 C70.9725664,48.2637168 72.5141593,49.3013274 72.5141593,50.25 C72.5141593,51.0504425 71.5061947,51.7915929 70.6761062,51.7915929 L70.4685841,51.7915929 C68.1561947,51.7915929 68.749115,49.3606195 67,49.3606195 L66.9110619,49.3606195 C66.4367257,49.3606195 65.339823,50.220354 65.0137168,50.5168142 C64.5097345,50.9318584 64.0650442,51.7323009 64.0650442,52.6216814 L64.0650442,52.9181416 C64.0650442,54.2225664 64.3911504,54.9044248 64.9544248,55.7048673 C65.6066372,56.6831858 66.1995575,56.5942478 67.3853982,56.95 C69.6384956,57.6022124 70.7946903,58.0172566 72.7216814,58.9659292 C75.1526549,60.1814159 80.1035398,62.9977876 83.3349558,62.9977876 L82.3269912,65.9623894 L74.9451327,65.0137168 Z"></path>
                                <path d="M103.583186,58.0469027 C103.583186,59.0252212 102.160177,61.5451327 101.745133,62.3159292 L101.537611,62.3159292 L101.122566,62.3159292 C99.9663717,62.3159292 99.1362832,64.8654867 98.780531,65.8734513 C98.5433628,66.5256637 97.0610619,69.8756637 97.0610619,70.1721239 C97.0610619,70.409292 98.2469027,71.1504425 98.5137168,71.2986726 L99.2252212,70.0831858 L98.780531,71.5061947 C99.3438053,71.5654867 99.5809735,71.8026549 100.322124,71.8026549 L100.826106,71.8026549 L101.863717,69.3716814 L102.990265,69.3716814 C103.346018,69.3716814 103.375664,69.2827434 103.70177,69.2827434 L103.70177,68.7787611 C103.70177,68.2154867 104.709735,67.1185841 104.857965,65.8438053 L103.99823,65.399115 L104.116814,64.2725664 L104.116814,64.0650442 C104.116814,63.5314159 103.85,63.4424779 103.494248,63.2646018 L103.494248,63.0570796 C103.494248,62.5530973 104.265044,61.0707965 104.472566,60.5668142 C104.620796,60.2110619 104.857965,59.7367257 105.065487,59.4106195 C105.361947,58.9362832 106.043805,58.7880531 106.043805,58.669469 C106.043805,58.3433628 104.027876,57.4539823 103.70177,57.4539823 L103.40531,57.4539823 C103.375664,58.0765487 103.583186,57.8690265 103.583186,58.0469027 Z"></path>
                                <path d="M101.745133,62.3455752 C102.160177,61.5747788 103.583186,59.0548673 103.583186,58.0765487 C103.583186,57.8690265 103.40531,58.1061947 103.375664,57.4539823 L103.672124,57.4539823 C103.99823,57.4539823 106.014159,58.3433628 106.014159,58.669469 C106.014159,58.7880531 105.332301,58.9659292 105.035841,59.4106195 C104.828319,59.7070796 104.59115,60.1814159 104.44292,60.5668142 C104.235398,61.0707965 103.464602,62.5530973 103.464602,63.0570796 L103.464602,63.2646018 C103.820354,63.4424779 104.087168,63.5610619 104.087168,64.0650442 L104.087168,64.2725664 L103.968584,65.399115 L104.828319,65.8438053 C104.680088,67.1185841 103.672124,68.1858407 103.672124,68.7787611 L103.672124,69.2827434 C103.346018,69.3123894 103.316372,69.3716814 102.960619,69.3716814 L101.834071,69.3716814 L100.79646,71.8026549 L100.292478,71.8026549 C99.5809735,71.8026549 99.3438053,71.5358407 98.750885,71.5061947 L99.1955752,70.0831858 L98.4840708,71.2986726 C98.2172566,71.1504425 97.0314159,70.409292 97.0314159,70.1721239 C97.0314159,69.8756637 98.5137168,66.5256637 98.750885,65.8734513 C99.1066372,64.8654867 99.9367257,62.3159292 101.09292,62.3159292 L101.507965,62.3159292 L101.745133,62.3159292 L101.745133,62.3455752 Z M98.780531,64.5690265 L98.899115,64.6579646 L97.9800885,66.8221239 L97.9800885,66.9110619 C97.9207965,67.8004425 96.7646018,69.3420354 96.7646018,70.0831858 L96.7646018,70.1721239 C96.7646018,70.5575221 97.8911504,71.3876106 98.2469027,71.5358407 C99.0769912,71.8915929 99.4327434,72.1287611 100.618584,72.1287611 L100.707522,72.1287611 C101.122566,72.1287611 101.982301,70.1128319 102.041593,69.6681416 L103.25708,69.6681416 C103.612832,69.6681416 103.968584,69.4902655 103.968584,69.1641593 L103.968584,68.660177 C103.968584,68.3637168 105.095133,67.059292 105.095133,66.0216814 C105.095133,65.5176991 104.680088,65.310177 104.29469,65.2212389 C104.324336,64.8951327 104.383628,64.8654867 104.383628,64.5097345 L104.383628,64.2132743 C104.383628,63.4424779 104.057522,63.4424779 103.761062,62.9977876 C104.502212,61.4561947 104.650442,60.6557522 105.599115,59.2327434 C106.043805,59.2327434 106.103097,59.1438053 106.310619,58.9362832 L106.310619,58.4323009 C105.954867,58.1951327 104.057522,57.0982301 103.672124,57.0982301 C103.40531,57.0982301 103.049558,57.3057522 103.049558,57.6022124 L103.049558,57.8097345 C103.049558,58.0469027 103.138496,58.0469027 103.25708,58.2247788 C103.079204,58.9362832 101.893363,62.1084071 101.330088,62.1084071 L101.033628,62.1084071 C100.144248,62.019469 99.2252212,63.9168142 98.780531,64.5690265 Z"></path>
                                <polygon points="86.8628319 87.1 86.8628319 87.25 87.3628319 87.6"></polygon>
                            </g>
                            <path d="M59.5588496,69.4013274 C58.7287611,68.5712389 58.0469027,67.4446903 58.0469027,65.8141593 L58.0469027,65.399115 C58.0469027,63.2646018 60.0035398,60.5075221 62.1084071,60.5075221 L63.65,60.5075221 C64.3318584,60.5075221 65.0137168,61.1597345 65.369469,61.5451327 C65.9920354,62.2566372 65.6955752,62.5827434 65.6955752,63.65 L66.7035398,63.65 C67.1482301,63.65 68.8973451,64.0946903 69.4902655,64.2132743 C69.9646018,64.3022124 71.980531,64.6579646 72.3066372,64.6579646 L72.6030973,64.6579646 L74.9451327,64.9840708 L82.2676991,65.9920354 L83.2756637,63.0274336 C80.0442478,63.0274336 75.0637168,60.1814159 72.6623894,58.9955752 C70.7650442,58.0469027 69.5792035,57.6318584 67.3261062,56.979646 C66.1402655,56.6535398 65.5473451,56.7128319 64.8951327,55.7345133 C64.3615044,54.9340708 64.0057522,54.2225664 64.0057522,52.9477876 L64.0057522,52.6513274 C64.0057522,51.7619469 64.4504425,50.9615044 64.9544248,50.5464602 C65.280531,50.25 66.3774336,49.3902655 66.8517699,49.3902655 L66.940708,49.3902655 C68.689823,49.3902655 68.0969027,51.8212389 70.409292,51.8212389 L70.6168142,51.8212389 C71.4469027,51.8212389 72.4548673,51.0800885 72.4548673,50.279646 C72.4548673,49.3309735 70.9132743,48.3230088 70.9132743,47.5225664 L70.9132743,47.2261062 C70.9132743,46.6035398 71.2097345,46.3367257 71.2097345,45.5955752 L71.2097345,45.180531 C71.2097345,44.3800885 70.4685841,43.0163717 70.0535398,42.5420354 C69.4902655,41.889823 68.5119469,41.5933628 67.3261062,41.5933628 C66.8814159,41.5933628 66.6146018,41.4451327 66.3181416,41.2969027 C66.2884956,40.229646 65.399115,39.1623894 64.2725664,39.1623894 L64.0650442,39.1623894 C63.0867257,39.1623894 62.019469,39.9035398 62.019469,40.8818584 L62.019469,41.1783186 C62.019469,41.949115 63.5610619,43.55 63.5610619,44.3504425 L63.5610619,44.9730088 C63.5610619,46.1588496 61.4858407,48.1451327 60.2110619,48.1451327 L60.0035398,48.1451327 C57.9283186,48.1451327 55.5269912,43.6389381 54.5783186,42.0676991 C53.1553097,39.7256637 51.7026549,37.1168142 51.4654867,33.6778761 L51.3469027,31.9584071 L51.3765487,30.5353982 L51.6730088,26.859292 L51.939823,25.139823 L52.3252212,22.2938053 L52.3252212,21.8787611 L52.5623894,19.9517699 L52.5327434,17.1057522 L49.6867257,17.1057522 L47.7597345,17.3132743 L47.3446903,17.3132743 C46.3663717,17.3132743 44.7951327,17.8469027 43.9946903,17.9358407 C44.0243363,18.5584071 44.1132743,18.3212389 44.4097345,18.7362832 L45.3287611,18.8548673 L46.0402655,18.8252212 L48.6787611,18.5880531 L48.7973451,18.6176991 C49.2716814,18.6176991 49.5088496,18.8548673 49.5088496,19.3292035 L49.5088496,19.6256637 L49.3013274,24.2207965 L49.3309735,24.7247788 L49.0938053,26.859292 L48.8862832,29.4088496 L48.560177,34.3893805 L48.619469,37.9469027 L48.7973451,40.9115044 L48.8269912,41.830531 L49.0345133,44.7951327 L49.0345133,46.0106195 L49.1530973,47.9376106 C49.7756637,47.5225664 50.8725664,46.6035398 51.880531,46.6035398 L52.7106195,46.6035398 C54.4597345,46.6035398 56.7721239,48.649115 56.7721239,50.279646 L56.7721239,50.5761062 C56.7721239,53.9261062 51.5840708,58.1951327 49.6274336,60.1221239 C48.2637168,61.4561947 47.2853982,63.4128319 46.2477876,65.1026549 C45.7141593,65.9920354 45.210177,66.7924779 44.6469027,67.6818584 C44.1725664,68.3933628 42.6902655,68.719469 41.5044248,68.719469 L40.7929204,68.719469 C36.1977876,68.719469 30.9207965,64.7172566 28.549115,62.3159292 C25.4362832,59.2030973 22.6495575,55.9123894 21.849115,50.4575221 L21.6119469,48.8269912 L21.6415929,46.2774336 L21.849115,44.6469027 C22.5013274,40.2 24.4283186,35.6048673 28.8752212,35.0712389 L29.8831858,34.9526549 C31.2765487,34.8044248 34.4783186,36.1088496 35.3380531,36.6424779 C36.790708,37.5318584 38.2137168,38.480531 39.3699115,39.6367257 C41.2969027,41.5637168 44.3207965,45.0026549 44.3207965,48.7380531 L44.3207965,49.2420354 C44.3207965,53.4517699 40.5261062,57.4836283 36.4646018,57.4836283 L35.3380531,57.4836283 C33.0849558,57.4836283 31.5730088,56.4460177 30.2685841,55.4380531 C29.3792035,54.7561947 27.6004425,52.5030973 27.6004425,51.0800885 C27.6004425,50.7539823 27.4225664,50.4871681 27.5115044,49.9535398 L27.6004425,48.9455752 C27.8969027,46.5146018 30.4464602,44.2615044 33.2035398,44.2615044 C35.8123894,44.2615044 38.8066372,46.6035398 38.8066372,48.9455752 L38.8066372,49.2420354 C38.8066372,50.5168142 37.5022124,51.7026549 36.1681416,51.7026549 L35.5455752,51.7026549 L35.5455752,51.7915929 L36.2570796,51.7915929 C37.8283186,51.7915929 39.3995575,50.5464602 39.3995575,48.9455752 L39.3995575,48.8566372 C39.3995575,46.4849558 36.4349558,44.1725664 34.0929204,43.9650442 L32.7588496,43.8464602 C31.3358407,43.7278761 29.2013274,45.0026549 28.460177,45.6845133 C27.6300885,46.4256637 26.5628319,48.3526549 26.5628319,49.8942478 L26.5628319,50.190708 C26.5628319,50.7836283 26.770354,50.9911504 26.770354,51.4061947 C26.770354,51.969469 27.7190265,53.629646 28.0154867,54.0150442 C28.7566372,54.9637168 29.0234513,55.230531 29.8831858,56.0013274 C30.9504425,56.95 33.5,58.1061947 35.5159292,58.1061947 L36.9389381,58.1061947 C39.3699115,58.1061947 42.0380531,56.6238938 43.2831858,55.3787611 C44.0836283,54.5783186 44.6765487,53.7185841 45.180531,52.7106195 C45.4769912,52.1176991 46.1884956,50.0424779 46.0995575,49.1530973 L46.0106195,47.9376106 C45.4176991,41.6526549 35.9309735,33.3814159 28.8752212,33.3814159 L28.7862832,33.3814159 L27.3632743,33.5889381 C24.8730088,34.0039823 23.2424779,35.6048673 22.0566372,37.3539823 C21.2858407,38.510177 19.7146018,42.1566372 19.7146018,43.9650442 L19.7146018,44.2615044 L19.4774336,45.9809735 L19.5070796,48.2340708 C19.5070796,54.6376106 23.3610619,59.4699115 26.6221239,62.7309735 C29.5570796,65.6659292 35.219469,69.9349558 40.9115044,69.9349558 C41.6230088,69.9349558 42.7792035,69.7867257 43.3424779,69.6088496 C43.6982301,69.4902655 45.180531,68.8380531 45.180531,69.4309735 L45.180531,70.0535398 L44.9433628,74.2336283 L44.7951327,77.6132743 L44.7654867,79.2438053 L44.6469027,80.7557522 C44.4986726,83.0681416 46.2774336,86.2106195 46.5146018,88.4044248 L46.6331858,89.5309735 L46.6035398,90.2424779 C46.6035398,92.2880531 45.180531,93.6814159 45.180531,94.6300885 L45.180531,94.8376106 C45.180531,96.0827434 47.2557522,97.5946903 48.649115,97.5946903 C49.7460177,97.5946903 50.190708,96.5867257 50.190708,95.460177 L50.190708,95.3712389 C50.190708,94.7486726 49.9831858,94.6004425 49.9831858,94.0371681 C49.9831858,93.2070796 48.560177,90.3017699 48.2340708,89.4716814 C47.7893805,88.2858407 46.7221239,86.2402655 46.7221239,84.6690265 L46.7221239,83.8389381 C46.7221239,81.4376106 47.7597345,79.1845133 48.7380531,77.7022124 C49.2716814,76.8721239 49.8942478,76.1606195 50.7243363,75.6269912 C51.2579646,75.2712389 52.7995575,74.4115044 53.7482301,74.5597345 L54.5486726,74.6783186 C57.3946903,75.1230088 61.4858407,77.9986726 61.4858407,81.2004425 L61.4858407,82.3269912 C61.4858407,84.0168142 60.5964602,86.4181416 60.0628319,87.6336283 C59.7070796,88.4340708 58.0172566,91.6061947 58.0172566,92.3176991 L58.0172566,92.5252212 C58.0172566,93.829646 60.8929204,95.5787611 61.900885,95.5787611 L62.5234513,95.5787611 C63.2942478,95.5787611 64.9544248,93.9482301 64.9544248,93.1477876 L64.9544248,93.0588496 C64.9544248,91.1615044 60.5668142,91.0725664 60.5668142,90.2128319 C60.5668142,89.4716814 61.7230088,87.9893805 62.0787611,87.4557522 C62.8199115,86.3588496 63.0274336,86.0623894 63.65,84.7579646 C64.4800885,83.0088496 66.2588496,81.2597345 66.2588496,78.9176991 L66.2588496,78.0876106 C66.2588496,75.8048673 63.590708,72.9292035 62.3159292,71.7433628 C61.8415929,71.2986726 61.3376106,71.1800885 60.8336283,70.6761062 C60.4185841,70.1424779 59.9738938,69.8460177 59.5588496,69.4013274 Z" id="Shape"></path>
                            <path d="M94.6004425,58.1951327 C93.2960177,57.2168142 91.9915929,56.0013274 89.9460177,55.8234513 L88.5230088,55.7048673 L88.6415929,54.6079646 L88.760177,51.6433628 L88.730531,49.7163717 L89.5309735,49.7163717 L90.8650442,49.6274336 C92.050885,49.5088496 94.0964602,48.3230088 95.0154867,47.7597345 C95.6973451,47.3446903 96.2902655,47.0185841 97.0017699,46.6628319 C97.4761062,46.4256637 98.750885,46.0106195 99.0473451,45.7438053 C96.4681416,45.7438053 94.3632743,44.7358407 92.2287611,44.5283186 L91.1022124,44.4097345 L90.479646,44.4393805 C89.5013274,44.4393805 88.9084071,44.7654867 88.1376106,44.9433628 C87.8115044,43.55 87.6039823,41.949115 87.159292,40.6150442 C86.9517699,40.0221239 85.9141593,36.9685841 85.8845133,36.6721239 C87.9597345,36.6721239 89.6495575,34.9823009 90.7464602,33.8853982 C91.1615044,33.470354 92.3176991,32.3141593 92.7327434,32.0176991 C92.9995575,31.810177 94.7486726,30.4761062 94.8376106,30.3575221 L93.4146018,30.5946903 L91.5765487,30.8022124 L90.0349558,30.7725664 L87.9893805,30.8615044 C85.9438053,30.9800885 84.9951327,31.6323009 83.720354,32.4920354 C83.3646018,30.9207965 79.4809735,26.5035398 79.4513274,25.9699115 C80.8446903,25.6141593 82.2676991,23.2721239 82.8606195,21.9380531 C83.2460177,20.9893805 83.6314159,20.2778761 84.0761062,19.3884956 C84.4911504,18.5880531 85.0544248,17.8765487 85.469469,17.1057522 C84.9951327,17.2243363 83.690708,18.1137168 82.9792035,18.380531 C82.060177,18.7362832 81.2597345,19.1216814 80.370354,19.4181416 C79.0066372,19.8924779 76.4570796,21.3154867 76.1013274,22.5902655 C75.9827434,22.5606195 73.0477876,20.159292 72.4845133,19.8035398 C72.099115,19.5367257 68.5712389,17.4022124 68.5712389,17.2836283 C68.5712389,17.2836283 69.1048673,16.5721239 69.1641593,16.4535398 C69.3716814,16.1570796 69.4902655,15.8606195 69.6681416,15.5345133 C69.9349558,15.030531 70.2610619,14.1115044 70.320354,13.429646 L70.4389381,10.8800885 L70.409292,9.96106195 L70.8243363,6.1960177 C70.290708,6.78893805 69.5495575,7.67831858 69.0455752,8.30088496 C68.4823009,9.0420354 67.8597345,9.57566372 67.2075221,10.2278761 C66.6146018,10.8207965 65.8141593,11.5915929 65.399115,12.3030973 C65.1915929,12.6588496 64.3911504,14.5858407 64.3911504,15.060177 L64.3911504,15.4752212 C63.8871681,15.4752212 61.2783186,14.5265487 60.4482301,14.3190265 C59.3216814,14.0522124 57.3650442,13.5482301 56.1199115,13.5482301 L55.8234513,13.5482301 C55.8827434,12.8960177 56.1199115,12.5106195 56.1199115,11.6212389 L56.1199115,10.2871681 C56.1199115,9.48672566 55.1712389,7.29292035 54.8747788,6.55176991 C54.6376106,5.98849558 53.6889381,3.29070796 53.6889381,2.75707965 C53.6889381,2.43097345 53.629646,2.43097345 53.4814159,2.25309735 C53.4814159,4.62477876 50.9318584,8.47876106 50.9318584,10.4057522 L50.9318584,11.3247788 L51.1393805,13.2517699 L48.9159292,13.370354 L48.8269912,13.340708 L47.1964602,13.5482301 L46.9,13.5482301 C45.7141593,13.5482301 43.9057522,14.2300885 42.7199115,14.2597345 C42.7199115,13.2221239 42.2455752,11.680531 41.919469,10.9986726 C41.3265487,9.81283186 40.8818584,9.57566372 40.170354,8.68628319 C39.6663717,8.0340708 38.8362832,7.08539823 38.2730088,6.49247788 C37.6207965,5.81061947 37.1761062,4.80265487 36.6128319,4.1800885 L36.7610619,5.09911504 L36.879646,6.31460177 L36.9685841,7.94513274 L36.820354,11.2951327 C36.820354,12.0659292 37.1761062,13.2221239 37.4429204,13.7853982 C37.6800885,14.3190265 38.4212389,15.3862832 38.480531,15.6827434 C37.3836283,15.9495575 35.0119469,17.1057522 34.0929204,17.6097345 C33.6482301,17.8765487 30.2685841,19.8331858 30.120354,19.8628319 C29.7646018,18.499115 27.5411504,17.0168142 26.2960177,16.3646018 C24.5765487,15.4752212 23.45,14.4079646 21.9973451,13.429646 C22.1455752,14.0522124 22.7681416,15.149115 23.0053097,15.8902655 C23.3017699,16.779646 23.5685841,17.6097345 23.8353982,18.5287611 C24.1615044,19.5663717 24.2800885,20.159292 24.7247788,21.0783186 C25.0212389,21.6415929 26.1181416,22.7681416 26.1477876,23.1238938 C25.3473451,23.3314159 21.0783186,28.3119469 21.0486726,28.3119469 C20.9300885,28.3119469 20.2778761,27.6004425 20.159292,27.4818584 C19.8331858,27.1557522 19.5070796,26.9778761 19.1216814,26.8 C18.350885,26.4146018 17.6393805,26.1181416 16.75,25.8216814 C15.000885,25.2287611 13.6075221,24.5469027 12.0955752,23.7464602 C12.1252212,23.8353982 13.340708,25.7623894 13.5482301,26.0588496 C13.9632743,26.6814159 14.4969027,27.7486726 14.7933628,28.489823 C15.4752212,30.179646 16.690708,31.6915929 18.2026549,32.4920354 C17.4911504,33.5889381 14.5561947,39.1920354 14.4376106,40.5557522 C13.7557522,40.4075221 12.8070796,39.8442478 12.0066372,39.8442478 L7.5300885,39.8442478 L5.1880531,39.7256637 C4.74336283,39.6960177 4.8619469,39.6663717 4.47654867,39.6367257 C4.65442478,39.8738938 6.13672566,40.8225664 6.52212389,41.1486726 C7.2039823,41.6823009 7.76725664,42.2455752 8.41946903,42.8384956 C9.48672566,43.8168142 11.1172566,45.299115 12.9256637,45.4473451 L12.1548673,50.4278761 L12.0955752,52.2659292 L12.0066372,53.8075221 L10.2871681,53.6889381 C9.81283186,53.659292 9.10132743,54.0150442 8.65663717,54.0150442 C8.47876106,54.0150442 6.13672566,54.6672566 5.75132743,54.7561947 C4.95088496,54.9933628 3.46858407,55.230531 2.54955752,55.230531 C3.05353982,55.5566372 4.12079646,55.8827434 4.74336283,56.1792035 C5.48451327,56.5349558 6.04778761,56.8610619 6.75929204,57.2464602 C7.94513274,57.8986726 9.42743363,59.0252212 11.1172566,59.0252212 L11.9176991,59.0252212 C12.2438053,58.669469 12.6292035,58.3730088 13.0146018,58.0765487 C13.4889381,57.7207965 14.1707965,57.8097345 14.6451327,58.1654867 C15.030531,58.1654867 15.4455752,58.2840708 15.6827434,58.610177 L15.7123894,58.639823 C15.6530973,58.0765487 15.5938053,57.4836283 15.5641593,56.890708 L15.4455752,55.1712389 L15.4752212,53.0367257 L15.8309735,48.7380531 C16.2163717,45.239823 18.2323009,39.0141593 19.7146018,36.7017699 C20.1889381,35.9606195 20.7225664,34.9526549 21.1672566,34.1818584 C21.6712389,33.3221239 22.2048673,32.6402655 22.7681416,31.810177 C23.7761062,30.2982301 25.169469,28.8159292 26.4442478,27.5411504 C31.2469027,22.7088496 38.9252212,17.7876106 47.7597345,17.0761062 L50.5168142,16.8389381 L53.2738938,16.8685841 C57.6615044,16.8685841 63.3535398,18.7955752 66.3477876,20.3075221 C70.35,22.2938053 72.8402655,24.3690265 75.8048673,27.3336283 C80.5185841,32.0473451 85.350885,41.3858407 85.350885,50.7836283 L85.350885,53.4221239 C85.350885,59.9146018 82.6827434,66.940708 80.2517699,71.0615044 C78.9176991,73.3738938 77.2575221,75.6862832 75.5084071,77.6132743 C74.2039823,79.0362832 71.1207965,82.000885 69.4606195,82.8902655 L69.4606195,83.0977876 C69.4606195,84.0168142 70.9725664,85.1137168 71.3876106,85.7362832 C72.3362832,85.1137168 72.9884956,84.4911504 73.8778761,83.8389381 C74.3818584,83.4831858 75.8345133,81.9415929 76.1902655,81.8526549 C76.5756637,82.9495575 79.2734513,83.9575221 80.5778761,84.2836283 C81.4376106,84.4911504 82.3566372,84.8469027 83.1867257,85.1433628 C83.9278761,85.380531 84.9654867,86.0030973 85.5287611,86.1513274 C85.0544248,85.439823 84.4911504,84.8172566 84.0168142,84.1057522 C83.5424779,83.3942478 83.1867257,82.7123894 82.7123894,81.9415929 C81.5561947,80.0738938 81.3783186,79.3623894 79.5106195,78.1172566 C80.1628319,77.1389381 80.9039823,76.2495575 81.6154867,75.2119469 C82.2973451,74.1743363 82.8902655,73.1960177 83.4831858,72.099115 C84.7283186,72.9292035 86.2699115,73.8185841 88.3747788,73.8185841 L88.9973451,73.8185841 L90.420354,74.0261062 C90.8946903,74.0853982 91.3986726,74.2336283 91.7544248,74.2336283 C92.199115,74.2336283 92.110177,74.4411504 92.5548673,74.4411504 C92.9106195,74.4411504 93.2663717,74.7079646 93.770354,74.7376106 C93.5331858,74.4115044 92.2584071,73.3738938 91.8137168,72.9292035 C91.3393805,72.4252212 90.479646,71.4765487 90.0646018,70.9132743 C89.2938053,69.8460177 87.2482301,67.8300885 85.7362832,67.7115044 C85.7362832,67.1185841 86.6553097,64.9840708 86.8924779,64.1836283 C87.1,63.4424779 87.6632743,60.9225664 87.8707965,60.4778761 C88.789823,60.6853982 89.8867257,61.5154867 91.2207965,61.3969027 L96.5274336,60.9818584 L97.2389381,61.0115044 L98.9584071,61.1300885 C98.6323009,60.8336283 97.2389381,60.1221239 96.7053097,59.7960177 C95.9345133,59.2030973 95.2823009,58.699115 94.6004425,58.1951327 Z" id="Shape"></path>
                            <path d="M98.780531,65.9030973 C98.5433628,66.5553097 97.0610619,69.9053097 97.0610619,70.2017699 C97.0610619,70.4389381 98.2469027,71.1800885 98.5137168,71.3283186 L99.2252212,70.1128319 L98.780531,71.5358407 C99.3438053,71.5951327 99.5809735,71.8323009 100.322124,71.8323009 L100.826106,71.8323009 L101.863717,69.4013274 L102.990265,69.4013274 C103.346018,69.4013274 103.375664,69.3123894 103.70177,69.3123894 L103.70177,68.8084071 C103.70177,68.2451327 104.709735,67.1482301 104.857965,65.8734513 L103.99823,65.4287611 L104.116814,64.3022124 L104.116814,64.0946903 C104.116814,63.5610619 103.85,63.4721239 103.494248,63.2942478 L103.494248,63.0867257 C103.494248,62.5827434 104.265044,61.1004425 104.472566,60.5964602 C104.620796,60.240708 104.857965,59.7663717 105.065487,59.4402655 C105.361947,58.9659292 106.043805,58.8176991 106.043805,58.699115 C106.043805,58.3730088 104.027876,57.4836283 103.70177,57.4836283 L103.40531,57.4836283 C103.40531,58.1061947 103.612832,57.8986726 103.612832,58.1061947 C103.612832,59.0845133 102.189823,61.6044248 101.774779,62.3752212 L101.567257,62.3752212 L101.152212,62.3752212 C99.9663717,62.3455752 99.1362832,64.8951327 98.780531,65.9030973 Z" id="Shape"></path>
                            <path d="M96.1420354,66.7331858 C96.5274336,66.7331858 96.4088496,66.7628319 96.6460177,66.6146018 L97.15,66.7331858 L97.9800885,66.8221239 L98.899115,64.6579646 L98.780531,64.5690265 L98.5730088,64.9840708 L97.4464602,64.9840708 C96.8535398,64.9840708 96.6460177,64.7765487 96.2309735,64.7765487 L96.0234513,64.7469027 L91.0429204,64.1539823 L90.8353982,64.1836283 L89.2048673,63.9761062 L87.5743363,63.7389381 C87.3668142,63.709292 87.4261062,63.709292 87.2778761,63.65 L86.3588496,66.4960177 L86.7738938,66.4663717 L92.4659292,66.7035398 L96.1420354,66.7035398 L96.1420354,66.7331858 Z" id="Shape"></path>
                            <path d="M36.2570796,49.0938053 C36.2570796,48.530531 35.219469,47.7597345 34.6265487,47.7597345 L34.2115044,47.7597345 C33.6778761,47.7597345 33.0849558,48.3823009 33.0849558,48.8862832 C33.0849558,50.279646 34.1225664,51.7026549 35.4269912,51.7323009 C34.6561947,51.1986726 33.529646,50.9318584 33.5,49.6867257 C34.0632743,49.7460177 34.5079646,50.309292 35.130531,50.309292 L35.4269912,50.309292 C35.8420354,50.309292 36.2570796,49.5681416 36.2570796,49.0938053 Z" id="Shape"></path>
                        </g>
                    </g>
                    <g id="Layer_1" transform="translate(0.000000, 42.393805)">
                        <g id="Group">
                            <path d="M36.879646,17.0761062 L34.7154867,22.4123894 L38.0951327,22.4123894 L38.599115,22.4123894 C40.0517699,22.4123894 40.7929204,23.0646018 40.7929204,24.3393805 C40.7929204,25.199115 40.4668142,25.8809735 39.8442478,26.3553097 C39.1920354,26.859292 38.3026549,27.0964602 37.1761062,27.0964602 L33.1738938,27.0964602 C31.899115,27.0964602 30.8911504,26.8 30.15,26.2367257 C29.4088496,25.6438053 29.0234513,24.8730088 29.0234513,23.8650442 C29.0234513,23.2424779 29.1716814,22.5606195 29.4681416,21.819469 L29.7942478,21.0486726 L31.4247788,17.0761062 L25.169469,17.0761062 L21.3451327,26.4738938 C18.7066372,32.9367257 14.7933628,36.1977876 9.60530973,36.1977876 C6.84823009,36.1977876 4.56548673,35.3380531 2.75707965,33.5889381 C0.948672566,31.869469 0.0592920354,29.6460177 0.0592920354,26.9778761 C0.0592920354,24.9026549 0.592920354,22.9460177 1.63053097,21.0783186 C2.66814159,19.2106195 4.15044248,17.5800885 6.04778761,16.2163717 C7.64867257,15.089823 9.51637168,14.1707965 11.650885,13.5185841 C13.7853982,12.8663717 15.8902655,12.5106195 17.9358407,12.5106195 L20.7225664,12.4216814 L21.5823009,12.3920354 L25.4066372,3.02389381 L25.6141593,2.46061947 C26.2663717,0.889380531 27.3039823,0.118584071 28.6973451,0.118584071 C29.3495575,0.118584071 29.8831858,0.326106195 30.2982301,0.681858407 C30.7429204,1.06725664 30.9504425,1.54159292 30.9504425,2.07522124 C30.9504425,2.5199115 30.7725664,3.20176991 30.4168142,4.09115044 L27.0371681,12.3920354 L33.2924779,12.3920354 L37.0575221,3.08318584 L37.2946903,2.49026549 C37.9469027,0.889380531 39.0141593,0.0889380531 40.4371681,0.0889380531 C41.0597345,0.0889380531 41.5637168,0.296460177 42.0084071,0.681858407 C42.4530973,1.06725664 42.6606195,1.57123894 42.6606195,2.13451327 C42.6606195,2.57920354 42.4827434,3.26106195 42.0973451,4.20973451 L38.7769912,12.3920354 L40.2889381,12.3920354 L40.8225664,12.3920354 C42.2752212,12.3920354 42.9867257,13.0442478 42.9867257,14.3190265 C42.9867257,15.1787611 42.6606195,15.8606195 42.0380531,16.3349558 C41.3858407,16.8389381 40.5261062,17.0761062 39.3995575,17.0761062 L36.879646,17.0761062 Z M19.7146018,17.0761062 L18.6473451,17.0761062 C14.7933628,17.0761062 11.680531,17.9654867 9.39778761,19.7146018 C8.18230088,20.6336283 7.26327434,21.6712389 6.55176991,22.8570796 C5.8699115,24.0429204 5.51415929,25.199115 5.51415929,26.3553097 C5.51415929,27.7190265 5.92920354,28.8455752 6.75929204,29.7349558 C7.58938053,30.6243363 8.62699115,31.0690265 9.87212389,31.0690265 C12.6292035,31.0690265 14.9415929,28.8159292 16.75,24.3393805 L19.7146018,17.0761062 Z" id="Shape"></path>
                            <path d="M52.7995575,11.8584071 C54.6969027,11.8584071 56.2384956,12.4513274 57.4836283,13.6668142 C58.699115,14.8823009 59.3216814,16.3942478 59.3216814,18.2619469 C59.3216814,19.6553097 58.9955752,21.0486726 58.3730088,22.4123894 C57.7207965,23.7761062 56.890708,24.9026549 55.8827434,25.7030973 C55.200885,26.2367257 54.4893805,26.6221239 53.7778761,26.8 C53.0663717,27.0075221 52.0287611,27.0964602 50.7243363,27.0964602 C48.589823,27.0964602 47.1668142,26.829646 46.4256637,26.3256637 C44.6765487,25.110177 43.7871681,23.3610619 43.7871681,20.9893805 C43.7871681,18.499115 44.6765487,16.3646018 46.4553097,14.5561947 C48.2340708,12.7477876 50.3685841,11.8584071 52.7995575,11.8584071 Z M52.3252212,16.0384956 C51.3469027,16.0384956 50.4871681,16.5128319 49.6867257,17.4615044 C48.8862832,18.410177 48.500885,19.4774336 48.500885,20.6039823 C48.500885,22.1159292 49.3606195,22.8867257 51.0504425,22.8867257 C52.0287611,22.8867257 52.7995575,22.5902655 53.3331858,21.9676991 C54.2225664,20.9597345 54.6672566,19.8035398 54.6672566,18.5287611 C54.6672566,17.7876106 54.4597345,17.1946903 54.0150442,16.720354 C53.570354,16.2460177 53.0367257,16.0384956 52.3252212,16.0384956 Z" id="Shape"></path>
                            <path d="M66.8517699,17.4615044 L66.4663717,18.350885 C65.9030973,19.6553097 65.0730088,20.2778761 64.0057522,20.2778761 C63.4721239,20.2778761 62.9977876,20.1 62.5530973,19.7146018 C62.1380531,19.3292035 61.930531,18.9141593 61.930531,18.439823 C61.930531,17.9951327 62.1084071,17.3725664 62.4938053,16.6314159 L65.1026549,11.3544248 C65.7548673,10.079646 66.5256637,9.45707965 67.5039823,9.45707965 C68.0079646,9.45707965 68.4526549,9.63495575 68.8084071,9.96106195 C69.1641593,10.2871681 69.3420354,10.7022124 69.3420354,11.1469027 C69.3420354,11.2654867 69.3123894,11.5323009 69.2234513,11.9176991 C69.1641593,12.2141593 69.1345133,12.4513274 69.1345133,12.6884956 C69.1345133,13.5185841 69.4309735,14.3486726 70.0535398,15.2084071 L71.1800885,16.75 C72.3066372,18.3212389 72.8699115,19.8628319 72.8699115,21.3451327 C72.8699115,22.9756637 72.2473451,24.3690265 71.0318584,25.4659292 C69.8163717,26.5628319 68.2747788,27.1261062 66.4367257,27.1261062 L62.3455752,27.1261062 C60.6853982,27.1261062 59.8553097,26.5628319 59.8553097,25.4066372 C59.8553097,24.6061947 60.1517699,23.9836283 60.7446903,23.5389381 C61.3376106,23.0942478 62.1380531,22.8570796 63.1756637,22.8570796 L65.4584071,22.8570796 C67.2668142,22.8570796 68.1858407,22.2048673 68.1858407,20.8707965 C68.1858407,20.3964602 68.0079646,19.8331858 67.6818584,19.1809735 L66.8517699,17.4615044 Z" id="Shape"></path>
                            <path d="M84.1353982,12.1252212 L84.7283186,12.1252212 C86.3884956,12.1252212 87.2185841,12.7181416 87.2185841,13.8743363 C87.2185841,14.6747788 86.9221239,15.2973451 86.3292035,15.7420354 C85.7362832,16.1867257 84.9358407,16.3942478 83.8982301,16.3942478 L82.4752212,16.3942478 L79.8367257,22.8274336 L82.030531,22.8274336 C83.690708,22.8274336 84.5207965,23.420354 84.5207965,24.5765487 C84.5207965,25.3769912 84.2243363,25.9995575 83.6610619,26.4442478 C83.0681416,26.8889381 82.2676991,27.0964602 81.2300885,27.0964602 L77.7318584,27.0964602 C76.7535398,27.0964602 75.9530973,26.859292 75.360177,26.4146018 C74.7672566,25.9699115 74.5004425,25.3473451 74.5004425,24.5469027 C74.5004425,24.0725664 74.6190265,23.5389381 74.8561947,22.9460177 L75.2415929,22.0862832 L77.5539823,16.3942478 L77.2575221,16.3942478 C75.8048673,16.3942478 75.0637168,15.8309735 75.0637168,14.7044248 C75.0637168,13.9039823 75.360177,13.2517699 75.9234513,12.8070796 C76.5163717,12.3623894 77.3168142,12.1252212 78.3544248,12.1252212 L79.2438053,12.1252212 L80.2814159,9.5460177 L80.4889381,9.01238938 C81.1115044,7.55973451 82.060177,6.84823009 83.3942478,6.84823009 C83.9278761,6.84823009 84.4022124,7.02610619 84.7876106,7.38185841 C85.1730088,7.73761062 85.350885,8.18230088 85.350885,8.68628319 C85.350885,9.19026549 85.1730088,9.81283186 84.8469027,10.5539823 L84.1353982,12.1252212 Z" id="Shape"></path>
                            <path d="M91.1022124,21.3747788 C91.1022124,22.3530973 91.8433628,22.8570796 93.3256637,22.8570796 L99.1362832,22.8570796 C100.766814,22.8570796 101.596903,23.45 101.596903,24.6061947 C101.596903,25.4066372 101.300442,26.0292035 100.737168,26.4738938 C100.144248,26.9185841 99.3438053,27.1261062 98.3061947,27.1261062 L92.7623894,27.1261062 C90.6871681,27.1261062 89.1159292,26.6221239 88.0486726,25.5845133 C86.9814159,24.5765487 86.4181416,23.0646018 86.4181416,21.1079646 C86.4181416,18.5880531 87.2778761,16.4238938 88.9676991,14.5858407 C90.6575221,12.7477876 92.7030973,11.8584071 95.0451327,11.8584071 C96.7646018,11.8584071 98.1283186,12.3030973 99.1659292,13.1924779 C100.20354,14.0818584 100.737168,15.2676991 100.737168,16.720354 C100.737168,18.469469 100.025664,19.7738938 98.5730088,20.6336283 C97.7725664,21.1079646 96.5867257,21.3451327 95.0154867,21.3451327 L91.1022124,21.3451327 L91.1022124,21.3747788 Z M92.050885,17.8172566 L94.2150442,17.8172566 C95.6084071,17.8172566 96.2902655,17.5207965 96.2606195,16.8982301 C96.2309735,16.2163717 95.7566372,15.8606195 94.8969027,15.8606195 C93.6814159,15.8606195 92.7327434,16.5128319 92.050885,17.8172566 Z" id="Shape"></path>
                            <path d="M107.585398,22.8274336 L109.630973,22.8274336 C111.29115,22.8274336 112.121239,23.420354 112.121239,24.5765487 C112.121239,25.3769912 111.824779,25.9995575 111.261504,26.4442478 C110.668584,26.8889381 109.868142,27.0964602 108.830531,27.0964602 L105.302655,27.0964602 C104.324336,27.0964602 103.583186,26.859292 103.019912,26.4146018 C102.456637,25.9699115 102.189823,25.3473451 102.189823,24.5765487 C102.189823,24.1615044 102.367699,23.509292 102.753097,22.5606195 L110.668584,3.08318584 L110.876106,2.54955752 C111.469027,1.09690265 112.447345,0.355752212 113.75177,0.355752212 C114.285398,0.355752212 114.759735,0.533628319 115.145133,0.919026549 C115.530531,1.27477876 115.708407,1.71946903 115.708407,2.22345133 C115.708407,2.60884956 115.619469,3.05353982 115.411947,3.55752212 L115.204425,4.09115044 L107.585398,22.8274336 Z" id="Shape"></path>
                        </g>
                        <g id="Group" transform="translate(71.150442, 28.460177)">
                            <path d="M13.5778761,22.7681416 L15.8013274,22.7681416 C17.4615044,22.7681416 18.2915929,23.3610619 18.2915929,24.5172566 C18.2915929,25.3176991 17.9951327,25.9402655 17.4022124,26.3849558 C16.809292,26.829646 16.0088496,27.0371681 14.9712389,27.0371681 L12.3327434,27.0371681 C11.3247788,27.0371681 10.5836283,26.6221239 10.109292,25.7920354 C9.27920354,26.6221239 8.38982301,27.0371681 7.44115044,27.0371681 L4.95088496,27.0371681 C3.49823009,27.0371681 2.3420354,26.5331858 1.48230088,25.5548673 C0.622566372,24.5765487 0.177876106,23.2424779 0.177876106,21.6119469 C0.177876106,19.0920354 1.03761062,16.8389381 2.75707965,14.8230088 C4.47654867,12.8070796 6.40353982,11.799115 8.5380531,11.799115 C10.109292,11.799115 11.3840708,12.3623894 12.3030973,13.4889381 L16.6610619,2.78672566 C17.4022124,0.948672566 18.439823,0.0592920354 19.7738938,0.0592920354 C20.3371681,0.0592920354 20.8115044,0.237168142 21.1969027,0.592920354 C21.5823009,0.948672566 21.789823,1.39336283 21.789823,1.92699115 C21.789823,2.3420354 21.700885,2.78672566 21.4933628,3.29070796 L21.2561947,3.82433628 L13.5778761,22.7681416 Z M6.43318584,22.8570796 L7.17433628,22.8570796 C8.06371681,22.8570796 8.65663717,22.5013274 8.95309735,21.789823 L10.4353982,18.1730088 C10.6132743,17.7283186 10.7022124,17.4022124 10.7022124,17.1650442 C10.7022124,16.779646 10.5243363,16.4535398 10.1982301,16.1570796 C9.87212389,15.8902655 9.45707965,15.7420354 8.95309735,15.7420354 C7.94513274,15.7420354 6.99646018,16.3053097 6.10707965,17.4318584 C5.21769912,18.5584071 4.77300885,19.8035398 4.77300885,21.1079646 C4.77300885,22.2938053 5.33628319,22.8570796 6.43318584,22.8570796 Z" id="Shape"></path>
                            <path d="M23.8057522,21.2858407 C23.8057522,22.2641593 24.5469027,22.7681416 26.0292035,22.7681416 L31.839823,22.7681416 C33.470354,22.7681416 34.3004425,23.3610619 34.3004425,24.5172566 C34.3004425,25.3176991 34.0039823,25.9402655 33.440708,26.3849558 C32.8477876,26.829646 32.0473451,27.0371681 31.0097345,27.0371681 L25.4659292,27.0371681 C23.390708,27.0371681 21.819469,26.5331858 20.7522124,25.4955752 C19.6849558,24.4876106 19.1216814,22.9756637 19.1216814,21.0190265 C19.1216814,18.499115 19.9814159,16.3349558 21.6712389,14.4969027 C23.3610619,12.6588496 25.4066372,11.769469 27.7486726,11.769469 C29.4681416,11.769469 30.8318584,12.2141593 31.869469,13.1035398 C32.9070796,13.9929204 33.440708,15.1787611 33.440708,16.6314159 C33.440708,18.380531 32.7292035,19.6849558 31.2765487,20.5446903 C30.4761062,21.0190265 29.2902655,21.2561947 27.7190265,21.2561947 L23.8057522,21.2561947 L23.8057522,21.2858407 Z M24.7247788,17.7283186 L26.8889381,17.7283186 C28.2823009,17.7283186 28.9641593,17.4318584 28.9345133,16.809292 C28.9048673,16.1274336 28.430531,15.7716814 27.5707965,15.7716814 C26.3553097,15.7716814 25.4362832,16.4238938 24.7247788,17.7283186 Z" id="Shape"></path>
                            <path d="M40.2889381,22.7681416 L42.3345133,22.7681416 C43.9946903,22.7681416 44.8247788,23.3610619 44.8247788,24.5172566 C44.8247788,25.3176991 44.5283186,25.9402655 43.9650442,26.3849558 C43.3721239,26.829646 42.5716814,27.0371681 41.5340708,27.0371681 L38.0061947,27.0371681 C37.0278761,27.0371681 36.2867257,26.8 35.7234513,26.3553097 C35.160177,25.9106195 34.8933628,25.2880531 34.8933628,24.5172566 C34.8933628,24.1022124 35.0712389,23.45 35.4566372,22.5013274 L43.3721239,3.02389381 L43.579646,2.49026549 C44.1725664,1.03761062 45.150885,0.296460177 46.4553097,0.296460177 C46.9889381,0.296460177 47.4632743,0.474336283 47.8486726,0.859734513 C48.2340708,1.21548673 48.4119469,1.66017699 48.4119469,2.16415929 C48.4119469,2.54955752 48.3230088,2.99424779 48.1154867,3.49823009 L47.9079646,4.03185841 L40.2889381,22.7681416 Z" id="Shape"></path>
                        </g>
                        <g id="Group" transform="translate(20.159292, 50.991150)">
                            <path d="M26.4146018,13.5778761 L23.1535398,21.6119469 C21.5230088,25.5845133 20.2778761,28.3119469 19.3884956,29.8238938 C18.499115,31.3358407 17.4022124,32.6106195 16.0384956,33.6482301 C14.0818584,35.189823 11.799115,35.9606195 9.2199115,35.9606195 C6.49247788,35.9606195 4.26902655,35.100885 2.57920354,33.3814159 C0.889380531,31.6619469 0.0296460177,29.4088496 0.0296460177,26.6517699 C0.0296460177,22.9756637 1.36371681,19.7442478 4.06150442,16.9871681 C5.51415929,15.5048673 7.32256637,14.2893805 9.51637168,13.4 C11.710177,12.4809735 13.8446903,12.0362832 16.0088496,12.0362832 C17.0464602,12.0362832 17.8765487,12.2734513 18.499115,12.7181416 C19.1216814,13.1924779 19.4477876,13.7853982 19.4477876,14.5561947 C19.4477876,15.3566372 19.1216814,15.9792035 18.439823,16.4831858 C18.0544248,16.779646 17.2836283,16.9575221 16.1867257,17.0761062 C13.6075221,17.3132743 11.5026549,17.9061947 9.90176991,18.8548673 C8.56769912,19.6553097 7.5300885,20.6929204 6.75929204,21.9676991 C5.98849558,23.2424779 5.60309735,24.6061947 5.60309735,26.0292035 C5.60309735,27.4818584 5.98849558,28.6380531 6.72964602,29.4977876 C7.47079646,30.3575221 8.47876106,30.7725664 9.75353982,30.7725664 C11.3544248,30.7725664 12.7181416,30.090708 13.8743363,28.7566372 C15.030531,27.4225664 16.3053097,25.0212389 17.6986726,21.5823009 L24.4876106,4.89159292 L22.3530973,4.89159292 C20.5446903,4.89159292 19.6553097,4.26902655 19.6553097,3.02389381 C19.6553097,2.13451327 19.9814159,1.45265487 20.6039823,0.948672566 C21.2265487,0.444690265 22.1159292,0.207522124 23.2721239,0.207522124 L30.7429204,0.207522124 C33.2628319,0.207522124 35.100885,0.681858407 36.2867257,1.63053097 C37.4725664,2.57920354 38.0654867,4.03185841 38.0654867,6.01814159 C38.0654867,8.41946903 37.1464602,10.3761062 35.2787611,11.9176991 C33.9446903,13.0146018 31.869469,13.5778761 29.0530973,13.5778761 L26.4146018,13.5778761 L26.4146018,13.5778761 Z M28.3119469,8.92345133 L29.9128319,8.92345133 C31.9880531,8.92345133 33.0553097,8.06371681 33.0553097,6.37389381 C33.0553097,5.39557522 32.4623894,4.92123894 31.2765487,4.92123894 L29.9424779,4.92123894 L28.3119469,8.92345133 Z" id="Shape"></path>
                            <path d="M43.9353982,11.710177 C45.8327434,11.710177 47.3743363,12.3030973 48.619469,13.5185841 C49.8349558,14.7340708 50.4575221,16.2460177 50.4575221,18.1137168 C50.4575221,19.5070796 50.1314159,20.9004425 49.5088496,22.2641593 C48.8566372,23.6278761 48.0265487,24.7544248 47.0185841,25.5548673 C46.3367257,26.0884956 45.6252212,26.4442478 44.9137168,26.6517699 C44.2022124,26.859292 43.1646018,26.9482301 41.860177,26.9482301 C39.7256637,26.9482301 38.3026549,26.6814159 37.5615044,26.1774336 C35.8123894,24.9619469 34.9230088,23.2128319 34.9230088,20.8411504 C34.9230088,18.350885 35.8123894,16.2163717 37.5911504,14.4079646 C39.3699115,12.6292035 41.4747788,11.710177 43.9353982,11.710177 Z M43.4610619,15.8902655 C42.4827434,15.8902655 41.6230088,16.3646018 40.8225664,17.3132743 C40.0221239,18.2619469 39.6367257,19.3292035 39.6367257,20.4557522 C39.6367257,21.9676991 40.4964602,22.7384956 42.1862832,22.7384956 C43.1646018,22.7384956 43.9353982,22.4420354 44.4690265,21.819469 C45.3584071,20.8115044 45.8030973,19.6553097 45.8030973,18.380531 C45.8030973,17.6393805 45.5955752,17.0464602 45.150885,16.5721239 C44.7061947,16.0977876 44.1429204,15.8902655 43.4610619,15.8902655 Z" id="Shape"></path>
                            <path d="M58.7584071,22.7088496 L63.679646,22.7088496 C65.310177,22.7088496 66.1402655,23.3017699 66.1402655,24.4579646 C66.1402655,25.2584071 65.8438053,25.8809735 65.280531,26.3256637 C64.6876106,26.770354 63.8871681,26.9778761 62.8495575,26.9778761 L53.7185841,26.9778761 C52.9181416,26.9778761 52.2659292,26.770354 51.7915929,26.3849558 C51.3172566,25.9699115 51.0800885,25.4362832 51.0800885,24.7544248 C51.0800885,24.1022124 51.5247788,23.3314159 52.3845133,22.4716814 L58.7880531,16.3053097 L56.6238938,16.3942478 L56.1199115,16.3942478 C54.6969027,16.3942478 53.9853982,15.8013274 53.9853982,14.6451327 C53.9853982,13.9039823 54.2522124,13.3110619 54.8154867,12.8070796 C55.3787611,12.3030973 56.0606195,12.0659292 56.8610619,12.0659292 L57.3650442,12.0659292 L63.4424779,12.0659292 C65.250885,12.0659292 66.1699115,12.8367257 66.1699115,14.3783186 C66.1699115,15.1787611 65.7548673,15.9792035 64.9247788,16.779646 L58.7584071,22.7088496 Z" id="Shape"></path>
                            <path d="M72.5438053,22.7088496 L74.7672566,22.7088496 C76.3977876,22.7088496 77.2278761,23.3017699 77.2278761,24.4579646 C77.2278761,25.2584071 76.9314159,25.8809735 76.3681416,26.3256637 C75.7752212,26.770354 74.9747788,26.9778761 73.9371681,26.9778761 L70.8243363,26.9778761 C69.6681416,26.9778761 68.7787611,26.740708 68.1265487,26.2663717 C67.4743363,25.7920354 67.1482301,25.169469 67.1482301,24.3393805 C67.1482301,23.8946903 67.2964602,23.3610619 67.5632743,22.7088496 L70.7946903,14.7637168 L71.0022124,14.2300885 C71.5951327,12.7477876 72.5734513,12.0066372 73.9075221,12.0066372 C74.4411504,12.0066372 74.9154867,12.1845133 75.330531,12.5402655 C75.7159292,12.8960177 75.9234513,13.340708 75.9234513,13.8446903 C75.9234513,14.2597345 75.7455752,14.9119469 75.389823,15.7716814 L72.5438053,22.7088496 Z M75.1526549,5.75132743 C75.9234513,5.75132743 76.5460177,6.01814159 77.079646,6.55176991 C77.6132743,7.08539823 77.8800885,7.73761062 77.8800885,8.47876106 C77.8800885,9.24955752 77.6132743,9.87212389 77.079646,10.4057522 C76.5460177,10.9393805 75.8938053,11.2061947 75.1526549,11.2061947 C74.3818584,11.2061947 73.759292,10.9393805 73.2256637,10.4057522 C72.6920354,9.87212389 72.4252212,9.2199115 72.4252212,8.47876106 C72.4252212,7.7079646 72.6920354,7.08539823 73.2256637,6.55176991 C73.729646,5.98849558 74.3818584,5.75132743 75.1526549,5.75132743 Z" id="Shape"></path>
                            <path d="M87.7818584,11.9769912 L88.3747788,11.9769912 C90.0349558,11.9769912 90.8650442,12.5699115 90.8650442,13.7261062 C90.8650442,14.5265487 90.5685841,15.149115 89.9756637,15.5938053 C89.3827434,16.0384956 88.5823009,16.2460177 87.5446903,16.2460177 L86.1216814,16.2460177 L83.4831858,22.6792035 L85.6769912,22.6792035 C87.3371681,22.6792035 88.1672566,23.2721239 88.1672566,24.4283186 C88.1672566,25.2287611 87.8707965,25.8513274 87.3075221,26.2960177 C86.7146018,26.740708 85.9141593,26.9482301 84.8765487,26.9482301 L81.3783186,26.9482301 C80.4,26.9482301 79.5995575,26.7110619 79.0066372,26.2663717 C78.4137168,25.8216814 78.1469027,25.199115 78.1469027,24.3986726 C78.1469027,23.9243363 78.2654867,23.390708 78.5026549,22.7977876 L78.8880531,21.9380531 L81.2004425,16.2460177 L80.9039823,16.2460177 C79.4513274,16.2460177 78.710177,15.6827434 78.710177,14.5561947 C78.710177,13.7557522 79.0066372,13.1035398 79.5699115,12.6588496 C80.1628319,12.2141593 80.9632743,11.9769912 82.000885,11.9769912 L82.8902655,11.9769912 L83.9278761,9.39778761 L84.1353982,8.86415929 C84.7579646,7.41150442 85.7066372,6.7 87.040708,6.7 C87.5743363,6.7 88.0486726,6.87787611 88.4340708,7.23362832 C88.819469,7.58938053 88.9973451,8.0340708 88.9973451,8.5380531 C88.9973451,9.0420354 88.819469,9.66460177 88.4933628,10.4057522 L87.7818584,11.9769912 Z" id="Shape"></path>
                            <path d="M95.489823,22.7088496 L97.7132743,22.7088496 C99.3438053,22.7088496 100.173894,23.3017699 100.173894,24.4579646 C100.173894,25.2584071 99.8774336,25.8809735 99.3141593,26.3256637 C98.7212389,26.770354 97.9207965,26.9778761 96.8831858,26.9778761 L93.770354,26.9778761 C92.6141593,26.9778761 91.7247788,26.740708 91.0725664,26.2663717 C90.420354,25.7920354 90.0942478,25.169469 90.0942478,24.3393805 C90.0942478,23.8946903 90.2424779,23.3610619 90.509292,22.7088496 L93.740708,14.7637168 L93.9482301,14.2300885 C94.5411504,12.7477876 95.519469,12.0066372 96.8535398,12.0066372 C97.3871681,12.0066372 97.8615044,12.1845133 98.2765487,12.5402655 C98.6619469,12.8960177 98.869469,13.340708 98.869469,13.8446903 C98.869469,14.2597345 98.6915929,14.9119469 98.3358407,15.7716814 L95.489823,22.7088496 Z M98.0690265,5.75132743 C98.839823,5.75132743 99.4623894,6.01814159 99.9960177,6.55176991 C100.529646,7.08539823 100.79646,7.73761062 100.79646,8.47876106 C100.79646,9.24955752 100.529646,9.87212389 99.9960177,10.4057522 C99.4623894,10.9393805 98.810177,11.2061947 98.0690265,11.2061947 C97.2982301,11.2061947 96.6756637,10.9393805 96.1420354,10.4057522 C95.6084071,9.87212389 95.3415929,9.2199115 95.3415929,8.47876106 C95.3415929,7.7079646 95.6084071,7.08539823 96.1420354,6.55176991 C96.6756637,5.98849558 97.3278761,5.75132743 98.0690265,5.75132743 Z" id="Shape"></path>
                            <path d="M111.735841,11.9769912 L114.433628,11.9769912 C116.093805,11.9769912 116.923894,12.5699115 116.923894,13.7261062 C116.923894,14.5265487 116.627434,15.149115 116.064159,15.5938053 C115.471239,16.0384956 114.670796,16.2460177 113.633186,16.2460177 L110.016372,16.2460177 L101.211504,37.9469027 C100.470354,39.7256637 99.4623894,40.6150442 98.1579646,40.6150442 C97.5946903,40.6150442 97.090708,40.4371681 96.7053097,40.0814159 C96.3199115,39.7256637 96.1123894,39.2809735 96.1123894,38.7769912 C96.1123894,38.3915929 96.2902655,37.7690265 96.6163717,36.909292 L105.006195,16.2460177 L103.672124,16.2460177 C102.011947,16.2460177 101.181858,15.6827434 101.181858,14.5561947 C101.181858,13.7557522 101.478319,13.1035398 102.041593,12.6588496 C102.634513,12.2141593 103.434956,11.9769912 104.472566,11.9769912 L106.696018,11.9769912 L109.186283,5.84026549 C110.016372,3.79469027 111.024336,2.37168142 112.180531,1.5119469 C113.336726,0.652212389 114.907965,0.237168142 116.864602,0.237168142 L119.088053,0.237168142 C120.74823,0.237168142 121.607965,0.800442478 121.607965,1.95663717 C121.607965,2.78672566 121.311504,3.40929204 120.718584,3.88362832 C120.125664,4.32831858 119.325221,4.56548673 118.257965,4.56548673 L117.665044,4.56548673 C116.568142,4.56548673 115.708407,4.77300885 115.056195,5.21769912 C114.433628,5.66238938 113.9,6.40353982 113.45531,7.47079646 L111.735841,11.9769912 Z" id="Shape"></path>
                            <path d="M125.195133,11.9769912 L127.89292,11.9769912 C129.553097,11.9769912 130.383186,12.5699115 130.383186,13.7261062 C130.383186,14.5265487 130.086726,15.149115 129.523451,15.5938053 C128.930531,16.0384956 128.130088,16.2460177 127.092478,16.2460177 L123.475664,16.2460177 L114.670796,37.9469027 C113.929646,39.7256637 112.921681,40.6150442 111.617257,40.6150442 C111.053982,40.6150442 110.55,40.4371681 110.164602,40.0814159 C109.779204,39.7256637 109.571681,39.2809735 109.571681,38.7769912 C109.571681,38.3915929 109.749558,37.7690265 110.075664,36.909292 L118.465487,16.2460177 L117.131416,16.2460177 C115.471239,16.2460177 114.64115,15.6827434 114.64115,14.5561947 C114.64115,13.7557522 114.937611,13.1035398 115.500885,12.6588496 C116.093805,12.2141593 116.894248,11.9769912 117.931858,11.9769912 L120.15531,11.9769912 L122.645575,5.84026549 C123.475664,3.79469027 124.483628,2.37168142 125.639823,1.5119469 C126.796018,0.652212389 128.367257,0.237168142 130.323894,0.237168142 L132.547345,0.237168142 C134.207522,0.237168142 135.067257,0.800442478 135.067257,1.95663717 C135.067257,2.78672566 134.770796,3.40929204 134.177876,3.88362832 C133.584956,4.32831858 132.784513,4.56548673 131.717257,4.56548673 L131.124336,4.56548673 C130.027434,4.56548673 129.167699,4.77300885 128.515487,5.21769912 C127.89292,5.66238938 127.359292,6.40353982 126.914602,7.47079646 L125.195133,11.9769912 Z" id="Shape"></path>
                        </g>
                    </g>
                </g>
            </g>
        </g>
    </g>
</svg>