<?xml version="1.0" encoding="UTF-8" standalone="no"?>
<svg width="137px" height="140px" viewBox="0 0 137 140" version="1.1" xmlns="http://www.w3.org/2000/svg" xmlns:xlink="http://www.w3.org/1999/xlink">
    <!-- Generator: Sketch 41.1 (35376) - http://www.bohemiancoding.com/sketch -->
    <title>metro logo</title>
    <desc>Created with Sketch.</desc>
    <defs>
        <polygon id="path-1" points="129.461841 1.09126027 0 1.09126027 0 129.762685 129.461841 129.762685 129.461841 1.09126027"></polygon>
        <polygon id="path-3" points="7.65438571 5.95894247 7.65438571 0.1136 0.28496 0.1136 0.28496 5.95894247 7.65438571 5.95894247"></polygon>
    </defs>
    <g id="Page-1" stroke="none" stroke-width="1" fill="none" fill-rule="evenodd">
        <g id="pozitiff-site" transform="translate(-642.000000, -442.000000)">
            <g id="metro-logo" transform="translate(642.000000, 441.000000)">
                <polygon id="Fill-1" fill="#FEFEFE" points="97.50153 90.2536438 85.9367729 48.5134247 66.9622729 91.7786849 63.9189157 91.8389863 42.5704014 49.3809863 32.96083 91.5452603 21.1670871 91.7825753 36.8320586 26.0871507 42.41383 25.976274 65.1264729 73.2525479 84.0050729 25.1417808 89.58293 25.0328493 109.293316 90.018274"></polygon>
                <g id="Group-40" transform="translate(0.000000, 0.854918)">
                    <g id="Group-4">
                        <mask id="mask-2" fill="white">
                            <use xlink:href="#path-1"></use>
                        </mask>
                        <g id="Clip-3"></g>
                        <path d="M65.8451357,120.394797 L65.8451357,120.394797 C35.3019643,121.003647 10.0411214,96.8908795 9.42657857,66.5359479 C8.81007857,36.1751808 33.0727786,11.0703589 63.61595,10.4595644 C94.1630357,9.84682466 119.421921,33.9595918 120.036464,64.3203589 C120.652964,94.6772356 96.3902643,119.782058 65.8451357,120.394797 M63.4280643,1.10312603 C27.6847643,1.81896164 -0.707507143,31.1974 0.0127214286,66.7226877 C0.730992857,102.247975 30.2916786,130.467071 66.0369357,129.74929 C101.778279,129.0354 130.17055,99.6550164 129.448364,64.131674 C128.728136,28.6044411 99.1694071,0.385345205 63.4280643,1.10312603" id="Fill-2" fill="#FEFEFE" mask="url(#mask-2)"></path>
                    </g>
                    <polygon id="Fill-5" fill="#FEFEFE" points="68.6088171 139.258816 71.2881457 134.475556 71.2842314 134.436652 68.4385457 134.718707 68.3172029 133.497118 73.0828457 133.028323 73.16896 133.876433 70.5503029 138.597447 70.5542171 138.638296 73.66216 138.327063 73.78546 139.550597 68.6871029 140.054405"></polygon>
                    <polygon id="Fill-7" fill="#FEFEFE" points="78.4097971 135.941268 76.0162114 136.363378 76.2902114 137.898145 78.9617114 137.429351 79.1769971 138.621762 75.03764 139.353159 73.8829257 132.895077 77.8852829 132.187022 78.1005686 133.389159 75.5641114 133.834611 75.80484 135.176803 78.1964686 134.754693"></polygon>
                    <polygon id="Fill-9" fill="#FEFEFE" points="78.8532857 131.97091 80.2976571 131.611047 81.6030714 136.763896 84.1493143 136.125868 84.4565857 137.335786 80.4659714 138.333677"></polygon>
                    <polygon id="Fill-11" fill="#FEFEFE" points="88.4401543 133.145814 86.1307257 133.900553 86.6200114 135.37891 89.1995257 134.538581 89.5792114 135.694033 85.5885971 136.997321 83.5257686 130.764882 87.3891686 129.502444 87.7708114 130.657896 85.3224257 131.459321 85.75104 132.752882 88.0585114 131.998142"></polygon>
                    <path d="M90.8675986,135.235548 L88.2880843,129.195685 L89.8909843,128.516808 L92.0986414,130.199411 C92.7327557,130.683767 93.4060129,131.284836 93.9755414,131.847 L93.9951129,131.841164 C93.5704129,131.078644 93.1946414,130.275274 92.80517,129.361027 L92.0555843,127.604507 L93.3179414,127.069575 L95.8974557,133.109438 L94.4569986,133.720233 L92.1632271,131.936479 C91.5251986,131.444342 90.7873557,130.837438 90.1962986,130.249986 L90.16107,130.263603 C90.5505414,131.051411 90.9321843,131.897575 91.35297,132.881849 L92.1299557,134.700616 L90.8675986,135.235548 Z" id="Fill-13" fill="#FEFEFE"></path>
                    <path d="M98.9024529,128.405348 L98.9024529,128.405348 L97.8749529,127.376334 C97.5833386,127.090389 97.24671,126.714964 96.9766243,126.417348 L96.95901,126.429019 C97.0607814,126.816115 97.2095243,127.300471 97.2975957,127.685622 L97.61661,129.093951 L98.9024529,128.405348 Z M97.95911,130.17354 L98.3485814,131.87754 L96.9942386,132.603101 L95.6261957,125.880471 L97.3504386,124.956499 L102.294181,129.761156 L100.875253,130.525622 L99.6207243,129.282636 L97.95911,130.17354 Z" id="Fill-15" fill="#FEFEFE"></path>
                    <path d="M104.257979,126.707184 C104.698336,126.654663 105.328536,126.465978 105.855007,126.106115 C106.418664,125.717074 106.553707,125.281348 106.309064,124.927321 C106.074207,124.592745 105.682779,124.575238 104.872521,124.802827 C103.749121,125.104334 102.807736,125.0168 102.259736,124.232882 C101.61975,123.3128 101.915279,122.07954 103.187421,121.204197 C103.807836,120.778197 104.33235,120.591458 104.760964,120.52143 L105.16805,121.684663 C104.886221,121.727458 104.385193,121.846115 103.862636,122.205978 C103.330293,122.573622 103.244179,122.997677 103.435979,123.270005 C103.676707,123.614307 104.077921,123.559841 104.972336,123.338088 C106.175979,123.0288 106.964707,123.221375 107.493136,123.981951 C108.125293,124.886471 107.968721,126.131403 106.479336,127.156526 C105.858921,127.584471 105.128907,127.837348 104.706164,127.878197 L104.257979,126.707184 Z" id="Fill-17" fill="#FEFEFE"></path>
                    <polygon id="Fill-19" fill="#FEFEFE" points="107.291159 119.840997 105.905501 120.957545 105.116773 119.990778 109.058459 116.812312 109.847187 117.779079 108.44783 118.907299 111.81803 123.038915 110.661359 123.972614"></polygon>
                    <path d="M112.591297,117.507334 L112.591297,117.507334 L113.017954,117.104677 C113.558126,116.596978 113.618797,116.025088 113.221497,115.608814 C112.80854,115.178923 112.297726,115.235334 111.798654,115.704129 C111.536397,115.953115 111.401354,116.106786 111.34264,116.202101 L112.591297,117.507334 Z M109.56164,116.47443 C109.857169,116.089279 110.324926,115.564074 110.910111,115.015526 C111.618597,114.342485 112.217483,113.978732 112.812454,113.924266 C113.321311,113.877581 113.798854,114.064321 114.21964,114.503937 C114.793083,115.10306 114.757854,115.929773 114.489726,116.466649 L114.509297,116.489992 C114.971183,116.307142 115.45264,116.441362 115.988897,116.764266 C116.662154,117.166923 117.396083,117.653225 117.664211,117.750485 L116.556469,118.798951 C116.349011,118.725033 115.867554,118.456595 115.170811,117.999471 C114.460369,117.526786 114.108083,117.56569 113.654026,117.981964 L113.335011,118.283471 L115.12384,120.152814 L114.051326,121.164321 L109.56164,116.47443 Z" id="Fill-21" fill="#FEFEFE"></path>
                    <path d="M117.682804,116.528118 C117.289419,116.164364 117.263976,115.648885 117.618219,115.271515 C117.96659,114.899981 118.47349,114.8922 118.878619,115.257899 C119.258304,115.608036 119.297447,116.123515 118.929504,116.514501 C118.588961,116.878255 118.060533,116.88409 117.682804,116.528118" id="Fill-23" fill="#FEFEFE"></path>
                    <polygon id="Fill-25" fill="#FEFEFE" points="118.701497 108.95057 118.687797 108.964186 118.390311 110.269419 117.360854 109.771447 117.79534 107.966296 118.554711 107.0112 123.553254 110.930789 122.662754 112.055118"></polygon>
                    <path d="M124.292076,105.388704 L124.292076,105.388704 L123.121704,104.606732 C122.804647,104.392759 122.491504,104.159334 122.15879,103.918129 L122.143133,103.939526 C122.370161,104.340238 122.581533,104.690375 122.792904,105.091088 L123.479861,106.555827 L123.489647,106.575279 L124.292076,105.388704 Z M126.478204,106.847608 L125.219761,106.007279 L123.646219,108.3318 L122.84379,107.794923 L120.959061,103.667197 L121.98069,102.155773 L125.078847,104.223526 L125.499633,103.60106 L126.427319,104.21769 L126.004576,104.842101 L127.264976,105.68243 L126.478204,106.847608 Z" id="Fill-27" fill="#FEFEFE"></path>
                    <path d="M128.909563,105.245342 C128.320463,104.533397 127.578706,103.790329 126.88392,103.220384 L127.570877,101.874301 C128.26762,102.658219 128.927177,103.554959 129.344049,104.344712 L128.909563,105.245342 Z" id="Fill-29" fill="#FEFEFE"></path>
                    <polygon id="Fill-31" fill="#FEFEFE" points="124.703076 97.0171233 125.356761 95.6885479 130.15959 98.0247397 131.316261 95.6807671 132.441619 96.2293151 130.633219 99.901863"></polygon>
                    <path d="M133.251876,94.3140658 L126.339247,93.7946959 L126.951833,92.2891068 L129.842533,92.5906137 C130.662576,92.6820384 131.427819,92.7695726 132.249819,92.9329699 L132.261561,92.905737 C131.588304,92.4563945 130.938533,91.9739836 130.325947,91.4837918 L128.028261,89.6552986 L128.62519,88.1944493 L133.905561,92.707326 L133.251876,94.3140658 Z" id="Fill-33" fill="#FEFEFE"></path>
                    <polygon id="Fill-35" fill="#FEFEFE" points="129.223097 86.2424356 135.483997 88.3199151 135.014283 89.7243534 128.751426 87.6449288"></polygon>
                    <g id="Group-39" transform="translate(129.171429, 79.753425)">
                        <mask id="mask-4" fill="white">
                            <use xlink:href="#path-3"></use>
                        </mask>
                        <g id="Clip-38"></g>
                        <path d="M7.20933143,5.60491507 L0.28496,5.95894247 L0.705745714,4.38721644 L3.60818857,4.32496986 C4.43214571,4.31135342 5.20521714,4.3035726 6.04091714,4.36192877 L6.04874571,4.33469589 C5.32264571,3.97094247 4.62003143,3.57606575 3.94677429,3.1656274 L1.43576,1.6386411 L1.84088857,0.1136 L7.65556,3.93009315 L7.20933143,5.60491507 Z" id="Fill-37" fill="#FEFEFE" mask="url(#mask-4)"></path>
                    </g>
                </g>
            </g>
        </g>
    </g>
</svg>