<?xml version="1.0" encoding="UTF-8" standalone="no"?>
<svg width="232px" height="40px" viewBox="0 0 232 40" version="1.1" xmlns="http://www.w3.org/2000/svg" xmlns:xlink="http://www.w3.org/1999/xlink">
    <!-- Generator: Sketch 41.1 (35376) - http://www.bohemiancoding.com/sketch -->
    <title>nton logo</title>
    <desc>Created with Sketch.</desc>
    <defs></defs>
    <g id="Page-1" stroke="none" stroke-width="1" fill="none" fill-rule="evenodd">
        <g id="pozitiff-site" transform="translate(-1078.000000, -237.000000)" fill="#FFFFFF">
            <g id="nton-logo" transform="translate(1078.000000, 237.000000)">
                <g id="Layer_1">
                    <g id="Group" transform="translate(0.000000, 5.271318)">
                        <polygon id="Shape" points="21.7054264 18.9767442 24.3410853 8.86821705 27.5348837 8.86821705 21.0852713 33.6744186 17.8914729 33.6744186 21.0542636 21.5503876 6.51162791 21.5503876 3.34883721 33.6744186 0.15503876 33.6744186 6.60465116 8.86821705 9.79844961 8.86821705 7.1627907 18.9767442 21.7054264 18.9767442"></polygon>
                        <path d="M32.7751938,20.2170543 C35.0077519,18.6356589 37.4263566,17.8604651 40.0310078,17.8604651 C42.2945736,17.8604651 44.124031,18.4496124 45.4883721,19.6589147 C46.8837209,20.8372093 47.5658915,22.3565891 47.5658915,24.1860465 C47.5658915,24.4651163 47.5348837,24.744186 47.503876,25.0542636 C47.4418605,25.3643411 47.379845,25.6744186 47.3178295,26.0155039 C46.7596899,28.2790698 45.3333333,30.1705426 43.1007752,31.751938 C40.8682171,33.3333333 38.4496124,34.1085271 35.8139535,34.1085271 C33.5503876,34.1085271 31.7209302,33.5193798 30.3565891,32.3100775 C28.9612403,31.1007752 28.2790698,29.6124031 28.3100775,27.7829457 C28.3100775,27.503876 28.3410853,27.2248062 28.372093,26.9147287 C28.4031008,26.6046512 28.4651163,26.3255814 28.5271318,26.0155039 C29.1472868,23.7209302 30.5426357,21.7984496 32.7751938,20.2170543 Z M31.5348837,26.7286822 C31.503876,26.9767442 31.4728682,27.1937984 31.4728682,27.4108527 C31.4728682,28.6821705 31.9069767,29.7054264 32.8062016,30.5116279 C33.7054264,31.3178295 34.9147287,31.6899225 36.4031008,31.6899225 C38.2325581,31.6899225 39.875969,31.1627907 41.3643411,30.0775194 C42.8217054,29.0232558 43.7829457,27.6589147 44.1860465,25.9844961 C44.248062,25.7054264 44.3100775,25.4573643 44.3410853,25.2093023 C44.372093,24.9612403 44.4031008,24.7131783 44.4031008,24.4651163 C44.4031008,23.1937984 43.9379845,22.1705426 43.0387597,21.4263566 C42.1395349,20.6511628 40.8992248,20.2790698 39.3488372,20.2790698 C37.5503876,20.2790698 35.9069767,20.8062016 34.4496124,21.8914729 C32.9922481,22.9767442 32.0620155,24.3410853 31.627907,26.0155039 C31.627907,26.2635659 31.5658915,26.4806202 31.5348837,26.7286822 Z" id="Shape"></path>
                        <polygon id="Shape" points="53.0852713 33.6744186 49.9844961 33.6744186 53.3643411 20.6821705 51.503876 20.6821705 52.124031 18.2325581 53.9844961 18.2325581 55.4108527 12.6511628 58.5116279 12.6511628 57.0542636 18.2325581 60.1860465 18.2325581 59.5658915 20.6821705 56.4341085 20.6821705"></polygon>
                        <path d="M63.0697674,26.4806202 C63.0387597,26.6976744 63.0077519,26.9147287 62.9767442,27.1007752 C62.9457364,27.2868217 62.9457364,27.503876 62.9457364,27.6899225 C62.9457364,28.8992248 63.3488372,29.8604651 64.124031,30.6046512 C64.8992248,31.3178295 65.9534884,31.6899225 67.2248062,31.6899225 C67.9069767,31.6899225 68.496124,31.627907 69.0542636,31.503876 C69.6124031,31.379845 70.1395349,31.1937984 70.6976744,30.9147287 C71.1627907,30.6666667 71.6589147,30.3565891 72.124031,29.9534884 C72.620155,29.5503876 73.1162791,29.0852713 73.6744186,28.496124 L75.9379845,29.7364341 C74.7286822,31.0697674 73.3023256,32.124031 71.7209302,32.9302326 C70.1085271,33.7054264 68.4031008,34.1085271 66.5736434,34.1085271 C64.4341085,34.1085271 62.7596899,33.5813953 61.5193798,32.496124 C60.2790698,31.4418605 59.6899225,30.0155039 59.7209302,28.2170543 C59.7209302,27.875969 59.751938,27.503876 59.7829457,27.1317829 C59.8449612,26.7596899 59.9069767,26.3565891 60,25.9534884 C60.620155,23.5968992 61.9224806,21.6744186 63.9379845,20.1550388 C65.9224806,18.6356589 68.1860465,17.8914729 70.7286822,17.8914729 C73.0542636,17.8914729 74.7286822,18.4496124 75.7829457,19.5968992 C76.8062016,20.744186 77.3333333,22.1395349 77.3333333,23.8449612 C77.3333333,24.2790698 77.3023256,24.7131783 77.2403101,25.1472868 C77.1782946,25.5813953 77.0852713,26.0465116 76.9612403,26.5116279 L63.0697674,26.4806202 L63.0697674,26.4806202 Z M74.2945736,24.1860465 L74.2945736,24.124031 L74.2945736,24.0620155 C74.2945736,22.8837209 73.9224806,21.9844961 73.1472868,21.3023256 C72.4031008,20.620155 71.379845,20.2790698 70.1085271,20.2790698 L69.9534884,20.2790698 L69.7984496,20.2790698 C68.5581395,20.3410853 67.379845,20.7751938 66.2945736,21.5193798 C65.1782946,22.2635659 64.4031008,23.1937984 63.9069767,24.2790698 L74.3255814,24.2790698 C74.2945736,24.2170543 74.2945736,24.2170543 74.2945736,24.1860465 Z" id="Shape"></path>
                        <polygon id="Shape" points="82.7906977 33.6744186 79.751938 33.6744186 86.7906977 6.54263566 89.8294574 6.54263566"></polygon>
                        <polygon id="Shape" points="107.007752 8.8372093 114.418605 8.8372093 124.124031 24.0310078 128.062016 8.8372093 135.472868 8.8372093 129.023256 33.6434109 121.612403 33.6434109 111.906977 18.4496124 107.968992 33.6434109 100.589147 33.6434109"></polygon>
                        <path d="M167.813953,11.9069767 C171.472868,9.36434109 175.565891,8.12403101 180.062016,8.12403101 C183.968992,8.12403101 187.069767,9.08527132 189.364341,10.9767442 C191.658915,12.8682171 192.837209,15.3178295 192.837209,18.3255814 C192.837209,18.7906977 192.806202,19.2868217 192.713178,19.8139535 C192.651163,20.3410853 192.527132,20.8682171 192.403101,21.3643411 C191.44186,25.1472868 189.116279,28.2790698 185.457364,30.7906977 C181.79845,33.3023256 177.705426,34.5426357 173.209302,34.5426357 C169.302326,34.5426357 166.20155,33.6124031 163.906977,31.7209302 C161.612403,29.8294574 160.434109,27.4108527 160.434109,24.4341085 C160.434109,23.9379845 160.465116,23.4418605 160.55814,22.9147287 C160.620155,22.4186047 160.744186,21.8914729 160.868217,21.3643411 C161.829457,17.5813953 164.124031,14.4186047 167.813953,11.9069767 Z M168.434109,22.1085271 C168.403101,22.3565891 168.403101,22.6356589 168.403101,22.8837209 C168.403101,24.4341085 168.992248,25.7054264 170.20155,26.7596899 C171.379845,27.8139535 172.930233,28.3100775 174.852713,28.3100775 C177.054264,28.3100775 179.131783,27.627907 181.054264,26.2635659 C182.976744,24.8992248 184.186047,23.255814 184.651163,21.3643411 C184.713178,21.0852713 184.775194,20.8372093 184.806202,20.5581395 C184.837209,20.2790698 184.868217,20.0310078 184.868217,19.7829457 C184.837209,18.2325581 184.248062,16.9302326 183.069767,15.9069767 C181.891473,14.8837209 180.341085,14.3565891 178.449612,14.3565891 C176.217054,14.3565891 174.139535,15.0387597 172.217054,16.4031008 C170.294574,17.7674419 169.085271,19.4108527 168.589147,21.3643411 C168.527132,21.6124031 168.465116,21.8604651 168.434109,22.1085271 Z" id="Shape"></path>
                        <polygon id="Shape" points="200.372093 8.8372093 207.782946 8.8372093 217.488372 24.0310078 221.426357 8.8372093 228.837209 8.8372093 222.387597 33.6434109 214.976744 33.6434109 205.271318 18.4496124 201.333333 33.6434109 193.953488 33.6434109"></polygon>
                        <polygon id="Shape" points="139.193798 33.6744186 149.488372 33.6434109 155.813953 10.7596899 160.930233 13.3023256 163.007752 5.11627907 153.364341 0.217054264 140.868217 5.14728682 138.666667 13.4573643 145.023256 11.2248062"></polygon>
                    </g>
                    <g id="Group" transform="translate(198.759690, 0.000000)">
                        <polygon id="Shape" points="28.0310078 0.279069767 29.5193798 3.31782946 32.8682171 3.81395349 30.4496124 6.17054264 31.0077519 9.48837209 28.0310078 7.9379845 25.0232558 9.48837209 25.6124031 6.17054264 23.1627907 3.81395349 26.5116279 3.31782946"></polygon>
                        <polygon id="Shape" points="16.5581395 0.279069767 18.0465116 3.31782946 21.3953488 3.81395349 18.9767442 6.17054264 19.5348837 9.48837209 16.5581395 7.9379845 13.5503876 9.48837209 14.1395349 6.17054264 11.6899225 3.81395349 15.0387597 3.31782946"></polygon>
                        <polygon id="Shape" points="5.08527132 0.279069767 6.57364341 3.31782946 9.92248062 3.81395349 7.50387597 6.17054264 8.0620155 9.48837209 5.08527132 7.9379845 2.07751938 9.48837209 2.66666667 6.17054264 0.217054264 3.81395349 3.56589147 3.31782946"></polygon>
                    </g>
                </g>
            </g>
        </g>
    </g>
</svg>