<?xml version="1.0" encoding="UTF-8" standalone="no"?>
<svg width="258px" height="40px" viewBox="0 0 258 40" version="1.1" xmlns="http://www.w3.org/2000/svg" xmlns:xlink="http://www.w3.org/1999/xlink">
    <!-- Generator: Sketch 41.1 (35376) - http://www.bohemiancoding.com/sketch -->
    <title>volter logo</title>
    <desc>Created with Sketch.</desc>
    <defs></defs>
    <g id="Page-1" stroke="none" stroke-width="1" fill="none" fill-rule="evenodd">
        <g id="pozitiff-site" transform="translate(-1071.000000, -741.000000)" fill="#FFFFFF">
            <g id="volter-logo" transform="translate(1071.000000, 741.000000)">
                <g id="Layer_1" transform="translate(-0.000000, 0.000000)">
                    <g id="Group" transform="translate(0.000000, 5.271318)">
                        <polygon id="Shape" points="21.7674419 18.9457364 24.4031008 8.8372093 27.5968992 8.8372093 21.1472868 33.6434109 17.9844961 33.6434109 21.1472868 21.5193798 6.60465116 21.5193798 3.44186047 33.6434109 0.248062016 33.6434109 6.69767442 8.8372093 9.89147287 8.8372093 7.25581395 18.9457364"></polygon>
                        <path d="M32.8682171,20.1860465 C35.1007752,18.6046512 37.5193798,17.8294574 40.124031,17.8294574 C42.3875969,17.8294574 44.2170543,18.4186047 45.5813953,19.627907 C46.9767442,20.8062016 47.6589147,22.3255814 47.6589147,24.1550388 C47.6589147,24.4341085 47.627907,24.7131783 47.5968992,25.0232558 C47.5348837,25.3333333 47.4728682,25.6434109 47.4108527,25.9844961 C46.8527132,28.248062 45.4263566,30.1395349 43.1937984,31.7209302 C40.9612403,33.3023256 38.5426357,34.0775194 35.9069767,34.0775194 C33.6434109,34.0775194 31.8139535,33.4883721 30.4496124,32.2790698 C29.0542636,31.0697674 28.372093,29.5813953 28.4031008,27.751938 C28.4031008,27.4728682 28.4341085,27.1937984 28.4651163,26.8837209 C28.496124,26.5736434 28.5581395,26.2945736 28.620155,25.9844961 C29.2093023,23.6899225 30.6356589,21.7674419 32.8682171,20.1860465 Z M31.627907,26.6976744 C31.5968992,26.9457364 31.5658915,27.1627907 31.5658915,27.379845 C31.5658915,28.6511628 32,29.6744186 32.8992248,30.4806202 C33.7984496,31.2868217 35.0077519,31.6589147 36.496124,31.6589147 C38.3255814,31.6589147 39.9689922,31.1317829 41.4573643,30.0465116 C42.9147287,28.9922481 43.875969,27.627907 44.2790698,25.9534884 C44.3410853,25.6744186 44.4031008,25.4263566 44.4341085,25.1782946 C44.4651163,24.9302326 44.496124,24.6821705 44.496124,24.4341085 C44.496124,23.1627907 44.0310078,22.1395349 43.1317829,21.3953488 C42.2325581,20.620155 40.9922481,20.248062 39.4418605,20.248062 C37.6434109,20.248062 36,20.7751938 34.5426357,21.8604651 C33.0852713,22.9457364 32.1550388,24.3100775 31.7209302,25.9844961 C31.6899225,26.2325581 31.6589147,26.4806202 31.627907,26.6976744 Z" id="Shape"></path>
                        <polygon id="Shape" points="53.1782946 33.6434109 50.0775194 33.6434109 53.4573643 20.6511628 51.5968992 20.6511628 52.2170543 18.2015504 54.0775194 18.2015504 55.503876 12.620155 58.6046512 12.620155 57.1472868 18.2015504 60.2790698 18.2015504 59.6589147 20.6511628 56.5271318 20.6511628"></polygon>
                        <path d="M63.1627907,26.4806202 C63.1317829,26.6976744 63.1007752,26.9147287 63.0697674,27.1007752 C63.0387597,27.2868217 63.0387597,27.503876 63.0387597,27.6899225 C63.0387597,28.8992248 63.4418605,29.8604651 64.2170543,30.6046512 C64.9922481,31.3178295 66.0465116,31.6899225 67.3178295,31.6899225 C68,31.6899225 68.5891473,31.627907 69.1472868,31.503876 C69.7054264,31.379845 70.2325581,31.1937984 70.7906977,30.9147287 C71.255814,30.6666667 71.751938,30.3565891 72.2170543,29.9534884 C72.7131783,29.5503876 73.2093023,29.0852713 73.7674419,28.496124 L76.0310078,29.7364341 C74.8217054,31.0697674 73.3953488,32.124031 71.8139535,32.9302326 C70.2015504,33.7054264 68.496124,34.1085271 66.6666667,34.1085271 C64.5271318,34.1085271 62.8527132,33.5813953 61.6124031,32.496124 C60.372093,31.4418605 59.7829457,30.0155039 59.8139535,28.2170543 C59.8139535,27.875969 59.8449612,27.503876 59.875969,27.1317829 C59.9379845,26.7596899 60,26.3565891 60.0930233,25.9534884 C60.7131783,23.5968992 62.0155039,21.6744186 64.0310078,20.1550388 C66.0155039,18.6356589 68.2790698,17.8914729 70.8217054,17.8914729 C73.1472868,17.8914729 74.8217054,18.4496124 75.875969,19.5968992 C76.8992248,20.744186 77.4263566,22.1395349 77.4263566,23.8449612 C77.4263566,24.2790698 77.3953488,24.7131783 77.3333333,25.1472868 C77.2713178,25.5813953 77.1782946,26.0465116 77.0542636,26.5116279 L63.1627907,26.4806202 L63.1627907,26.4806202 Z M74.3875969,24.1860465 L74.3875969,24.124031 L74.3875969,24.0620155 C74.3875969,22.8837209 74.0155039,21.9844961 73.2403101,21.3023256 C72.496124,20.620155 71.4728682,20.2790698 70.2015504,20.2790698 L70.0465116,20.2790698 L69.8914729,20.2790698 C68.6511628,20.3410853 67.4728682,20.7751938 66.3875969,21.5193798 C65.2713178,22.2635659 64.496124,23.1937984 64,24.2790698 L74.4186047,24.2790698 C74.3875969,24.2170543 74.3875969,24.1860465 74.3875969,24.1860465 Z" id="Shape"></path>
                        <polygon id="Shape" points="82.8837209 33.6434109 79.8449612 33.6434109 86.8837209 6.51162791 89.9224806 6.51162791"></polygon>
                        <polygon id="Shape" points="115.131783 23.9379845 125.953488 8.8372093 133.984496 8.8372093 115.410853 33.6434109 109.643411 33.6434109 104.093023 8.8372093 112.155039 8.8372093"></polygon>
                        <path d="M138.852713,11.875969 C142.511628,9.33333333 146.604651,8.09302326 151.100775,8.09302326 C155.007752,8.09302326 158.108527,9.05426357 160.403101,10.9457364 C162.697674,12.8372093 163.875969,15.2868217 163.875969,18.2945736 C163.875969,18.7596899 163.844961,19.255814 163.751938,19.7829457 C163.689922,20.3100775 163.565891,20.8372093 163.44186,21.3333333 C162.48062,25.1162791 160.155039,28.248062 156.496124,30.7596899 C152.837209,33.2713178 148.744186,34.5116279 144.248062,34.5116279 C140.341085,34.5116279 137.24031,33.5813953 134.945736,31.6899225 C132.651163,29.7984496 131.472868,27.379845 131.472868,24.4031008 C131.472868,23.9069767 131.503876,23.4108527 131.596899,22.8837209 C131.658915,22.3875969 131.782946,21.8604651 131.906977,21.3333333 C132.868217,17.5503876 135.193798,14.4186047 138.852713,11.875969 Z M139.472868,22.1085271 C139.44186,22.3565891 139.44186,22.6356589 139.44186,22.8837209 C139.44186,24.4341085 140.031008,25.7054264 141.24031,26.7596899 C142.418605,27.8139535 143.968992,28.3100775 145.891473,28.3100775 C148.093023,28.3100775 150.170543,27.627907 152.093023,26.2635659 C154.015504,24.8992248 155.224806,23.255814 155.689922,21.3643411 C155.751938,21.0852713 155.813953,20.8372093 155.844961,20.5581395 C155.875969,20.2790698 155.906977,20.0310078 155.906977,19.7829457 C155.875969,18.2325581 155.286822,16.9302326 154.108527,15.9069767 C152.930233,14.8837209 151.379845,14.3565891 149.488372,14.3565891 C147.255814,14.3565891 145.178295,15.0387597 143.255814,16.4031008 C141.333333,17.7674419 140.124031,19.4108527 139.627907,21.3643411 C139.565891,21.5813953 139.503876,21.8294574 139.472868,22.1085271 Z" id="Shape"></path>
                        <polygon id="Shape" points="173.178295 28.1860465 182.108527 28.1860465 180.682171 33.6434109 164.372093 33.6434109 170.75969 8.8372093 178.170543 8.8372093"></polygon>
                        <polygon id="Shape" points="219.255814 14.2945736 218.170543 18.4186047 226.542636 18.4186047 225.116279 23.875969 216.744186 23.875969 215.627907 28.1550388 224.434109 28.1550388 223.007752 33.6124031 206.821705 33.6124031 213.209302 8.80620155 229.426357 8.80620155 228 14.2635659 219.255814 14.2635659 219.255814 14.2945736"></polygon>
                        <path d="M251.472868,33.6434109 L242.232558,33.6434109 L237.612403,24.124031 L235.131783,33.6434109 L227.751938,33.6434109 L234.139535,8.8372093 L245.705426,8.8372093 C248.062016,8.8372093 249.922481,9.33333333 251.317829,10.2945736 C252.682171,11.2868217 253.395349,12.6821705 253.395349,14.5426357 C253.395349,14.8527132 253.364341,15.1937984 253.333333,15.5658915 C253.271318,15.9379845 253.209302,16.2790698 253.116279,16.6511628 C252.682171,18.3875969 251.751938,19.8449612 250.325581,21.0542636 C248.899225,22.2635659 247.193798,23.0697674 245.147287,23.4418605 L251.472868,33.6434109 Z M239.689922,19.9379845 C240,19.9379845 240.341085,19.9069767 240.682171,19.875969 C241.736434,19.8139535 242.697674,19.5658915 243.627907,19.1627907 C244.55814,18.7596899 245.147287,17.9844961 245.426357,16.8682171 C245.457364,16.7751938 245.457364,16.6821705 245.488372,16.5891473 C245.488372,16.496124 245.51938,16.4341085 245.550388,16.3410853 L245.550388,16.2170543 L245.550388,16.0930233 C245.51938,15.255814 245.116279,14.6666667 244.310078,14.3875969 C243.503876,14.0775194 242.635659,13.9224806 241.705426,13.8604651 C241.457364,13.8294574 241.209302,13.8294574 240.96124,13.8294574 L240.248062,13.8294574 L238.697674,19.9689922 C239.03876,19.9689922 239.348837,19.9379845 239.689922,19.9379845 Z" id="Shape"></path>
                        <polygon id="Shape" points="185.891473 33.6434109 196.186047 33.6124031 202.511628 10.7286822 207.627907 13.2713178 209.705426 5.08527132 200.062016 0.186046512 187.565891 5.11627907 185.364341 13.4263566 191.72093 11.1937984"></polygon>
                    </g>
                    <g id="Group" transform="translate(224.186047, 0.000000)">
                        <polygon id="Shape" points="28.0930233 0.248062016 29.5813953 3.28682171 32.9302326 3.78294574 30.5116279 6.13953488 31.0697674 9.45736434 28.0930233 7.90697674 25.0852713 9.45736434 25.6744186 6.13953488 23.2248062 3.78294574 26.5736434 3.28682171"></polygon>
                        <polygon id="Shape" points="16.620155 0.248062016 18.1085271 3.28682171 21.4573643 3.78294574 19.0387597 6.13953488 19.5968992 9.45736434 16.620155 7.90697674 13.6124031 9.45736434 14.2015504 6.13953488 11.751938 3.78294574 15.1007752 3.28682171"></polygon>
                        <polygon id="Shape" points="5.14728682 0.248062016 6.63565891 3.28682171 9.98449612 3.78294574 7.56589147 6.13953488 8.12403101 9.45736434 5.14728682 7.90697674 2.13953488 9.45736434 2.72868217 6.13953488 0.279069767 3.78294574 3.62790698 3.28682171"></polygon>
                    </g>
                </g>
            </g>
        </g>
    </g>
</svg>